<svg width="50" height="64" viewBox="0 0 50 64" fill="none" xmlns="http://www.w3.org/2000/svg">
<path d="M25.0059 14.2768C38.7365 14.2768 49.8671 25.4076 49.8672 39.1381C49.8672 52.8688 38.7366 63.9994 25.0059 63.9994C21.13 63.9994 17.462 63.1115 14.1923 61.5294C13.9586 61.4163 13.7005 61.3618 13.4413 61.3768L3.94619 61.9249C3.0049 61.9793 2.25441 61.1497 2.40247 60.2185L3.62813 52.5104C3.6829 52.166 3.61253 51.8141 3.43867 51.5117C1.34355 47.8678 0.144594 43.643 0.144594 39.1381C0.144708 25.4076 11.2754 14.2769 25.0059 14.2768Z" fill="white"/>
<path d="M24.1017 33.9804C23.4964 32.7577 24.1145 31.2309 25.4332 30.8809V30.8809C26.3837 30.6286 27.3788 31.0898 27.7682 31.9928C28.2598 33.1326 28.8839 34.6829 29.1907 35.8609C29.4904 37.0116 29.6974 38.5511 29.8237 39.7133C29.9293 40.6853 29.2952 41.5709 28.3502 41.8218V41.8218C27.0283 42.1727 25.7321 41.1468 25.6521 39.7815C25.5941 38.7924 25.478 37.7085 25.2522 36.8456C25.02 35.9583 24.5611 34.9083 24.1017 33.9804Z" fill="black"/>
<path d="M37.8862 31.0265C37.2809 29.8038 37.899 28.2771 39.2177 27.927V27.927C40.1682 27.6747 41.1633 28.1359 41.5527 29.0389C42.0442 30.1787 42.6683 31.729 42.9752 32.9071C43.2748 34.0578 43.4818 35.5972 43.6082 36.7594C43.7138 37.7315 43.0797 38.6171 42.1346 38.8679V38.8679C40.8128 39.2188 39.5166 38.1929 39.4365 36.8276C39.3785 35.8385 39.2625 34.7546 39.0367 33.8917C38.8045 33.0044 38.3456 31.9544 37.8862 31.0265Z" fill="black"/>
<path d="M18.6061 7.38462L14.6677 0L24.5138 6.64615L20.5754 10.8308L25.4984 20.4308L14.6677 10.8308L18.6061 7.38462Z" fill="#FF3D33"/>
</svg>
