<svg width="20" height="20" viewBox="0 0 20 20" fill="none" xmlns="http://www.w3.org/2000/svg">
<path fill-rule="evenodd" clip-rule="evenodd" d="M7.13143 0.833316C7.13788 0.833318 7.14439 0.833319 7.15095 0.833319L12.8686 0.833316C12.9604 0.833294 13.0403 0.833274 13.1165 0.837892C14.0806 0.896276 14.9247 1.50472 15.285 2.40082C15.3135 2.47171 15.3387 2.54753 15.3678 2.63468L15.4485 2.8768C15.5393 3.14943 15.7945 3.33332 16.0819 3.33332C17.7856 3.33332 19.1667 4.71444 19.1667 6.41813V13.5344C19.1667 14.2052 19.1667 14.7589 19.1298 15.2098C19.0916 15.6783 19.0094 16.1088 18.8034 16.5133C18.4838 17.1405 17.9738 17.6504 17.3466 17.97C16.9422 18.1761 16.5116 18.2582 16.0432 18.2965C15.5922 18.3333 15.0386 18.3333 14.3678 18.3333H5.63223C4.96143 18.3333 4.40781 18.3333 3.95682 18.2965C3.4884 18.2582 3.05781 18.1761 2.65337 17.97C2.02616 17.6504 1.51623 17.1405 1.19665 16.5133C0.990573 16.1088 0.908436 15.6783 0.870165 15.2098C0.833317 14.7588 0.833326 14.2052 0.833336 13.5344L0.833337 6.41813C0.833337 4.71444 2.21446 3.33332 3.91815 3.33332C4.20553 3.33332 4.46067 3.14943 4.55155 2.8768L4.6261 2.65313C4.62818 2.6469 4.63023 2.64073 4.63227 2.63461C4.66129 2.54749 4.68653 2.47169 4.71502 2.40082C5.07527 1.50472 5.91944 0.896276 6.88347 0.837892C6.95971 0.833274 7.0396 0.833294 7.13143 0.833316ZM7.15095 2.49999C7.0287 2.49999 7.00329 2.50036 6.98423 2.50151C6.66288 2.52097 6.38149 2.72379 6.26141 3.02249C6.25428 3.04021 6.2459 3.0642 6.20724 3.18018L6.13268 3.40384C5.81495 4.35704 4.92292 4.99999 3.91815 4.99999C3.13493 4.99999 2.5 5.63491 2.5 6.41813V13.5C2.5 14.2138 2.50065 14.699 2.5313 15.0741C2.56115 15.4395 2.61525 15.6263 2.68166 15.7566C2.84145 16.0702 3.09642 16.3252 3.41002 16.485C3.54035 16.5514 3.72719 16.6055 4.09254 16.6354C4.46761 16.666 4.95285 16.6667 5.66667 16.6667H14.3333C15.0472 16.6667 15.5324 16.666 15.9075 16.6354C16.2728 16.6055 16.4597 16.5514 16.59 16.485C16.9036 16.3252 17.1586 16.0702 17.3183 15.7566C17.3848 15.6263 17.4389 15.4395 17.4687 15.0741C17.4994 14.699 17.5 14.2138 17.5 13.5V6.41813C17.5 5.63491 16.8651 4.99999 16.0819 4.99999C15.0771 4.99999 14.1851 4.35704 13.8673 3.40384L13.7928 3.18018C13.7541 3.0642 13.7457 3.04021 13.7386 3.02249C13.6185 2.72379 13.3371 2.52097 13.0158 2.50151C12.9967 2.50036 12.9713 2.49999 12.8491 2.49999H7.15095ZM10 7.08332C8.38917 7.08332 7.08334 8.38916 7.08334 9.99999C7.08334 11.6108 8.38917 12.9167 10 12.9167C11.6108 12.9167 12.9167 11.6108 12.9167 9.99999C12.9167 8.38916 11.6108 7.08332 10 7.08332ZM5.41667 9.99999C5.41667 7.46868 7.4687 5.41665 10 5.41665C12.5313 5.41665 14.5833 7.46868 14.5833 9.99999C14.5833 12.5313 12.5313 14.5833 10 14.5833C7.4687 14.5833 5.41667 12.5313 5.41667 9.99999Z" fill="#7E7E7E"/>
</svg>
