<svg width="230" height="64" viewBox="0 0 230 64" fill="none" xmlns="http://www.w3.org/2000/svg">
<path d="M25.0059 14.2768C38.7365 14.2768 49.8671 25.4076 49.8672 39.1381C49.8672 52.8688 38.7366 63.9994 25.0059 63.9994C21.13 63.9994 17.462 63.1115 14.1923 61.5294C13.9586 61.4163 13.7005 61.3618 13.4413 61.3768L3.94619 61.9249C3.0049 61.9793 2.25441 61.1497 2.40247 60.2185L3.62813 52.5104C3.6829 52.166 3.61253 51.8141 3.43867 51.5117C1.34355 47.8678 0.144594 43.643 0.144594 39.1381C0.144708 25.4076 11.2754 14.2769 25.0059 14.2768Z" fill="white"/>
<path d="M24.1017 33.9804C23.4964 32.7577 24.1145 31.2309 25.4332 30.8809V30.8809C26.3837 30.6286 27.3788 31.0898 27.7682 31.9928C28.2598 33.1326 28.8839 34.6829 29.1907 35.8609C29.4904 37.0116 29.6974 38.5511 29.8237 39.7133C29.9293 40.6853 29.2952 41.5709 28.3502 41.8218V41.8218C27.0283 42.1727 25.7321 41.1468 25.6521 39.7815C25.5941 38.7924 25.478 37.7085 25.2522 36.8456C25.02 35.9583 24.5611 34.9083 24.1017 33.9804Z" fill="black"/>
<path d="M37.8862 31.0265C37.2809 29.8038 37.899 28.2771 39.2177 27.927V27.927C40.1682 27.6747 41.1633 28.1359 41.5527 29.0389C42.0442 30.1787 42.6683 31.729 42.9752 32.9071C43.2748 34.0578 43.4818 35.5972 43.6082 36.7594C43.7138 37.7315 43.0797 38.6171 42.1346 38.8679V38.8679C40.8128 39.2188 39.5166 38.1929 39.4365 36.8276C39.3785 35.8385 39.2625 34.7546 39.0367 33.8917C38.8045 33.0044 38.3456 31.9544 37.8862 31.0265Z" fill="black"/>
<path d="M18.6061 7.38462L14.6677 0L24.5138 6.64615L20.5754 10.8308L25.4984 20.4308L14.6677 10.8308L18.6061 7.38462Z" fill="#FF3D33"/>
<path d="M79.7107 50.4584C69.7259 50.4584 64.7335 45.2914 64.7335 34.9573H71.3706C71.3706 38.4796 72.0402 41.0267 73.3792 42.5987C74.7474 44.1415 76.8579 44.9129 79.7107 44.9129C82.5635 44.9129 84.6739 44.127 86.0421 42.555C87.4103 40.9831 88.0944 38.4505 88.0944 34.9573V24.7397H68.7944V19.1942H94.6442V34.9573C94.6442 45.2914 89.6663 50.4584 79.7107 50.4584ZM107.944 49.7598H101.351V19.1942H107.944V49.7598ZM121.376 49.7598H114.783V19.1942H138.93C142.015 19.1942 144.417 19.9365 146.135 21.4211C147.881 22.9057 148.754 24.8561 148.754 27.2722C148.754 29.6884 147.852 31.5805 146.047 32.9487C144.271 34.2878 141.899 34.9573 138.93 34.9573L135.699 35.001V35.1756C137.154 35.2629 138.464 35.5249 139.628 35.9616C140.793 36.3982 141.841 36.9513 142.772 37.6209C143.704 38.2904 144.635 39.251 145.567 40.5028C146.528 41.7545 147.401 43.0644 148.187 44.4326C149.002 45.8008 149.977 47.5765 151.112 49.7598H143.427C142.496 48.1005 141.826 46.9361 141.419 46.2666C141.04 45.5679 140.516 44.6509 139.847 43.5157C139.177 42.3513 138.682 41.5653 138.362 41.1577C138.042 40.7502 137.605 40.2117 137.052 39.5421C136.499 38.8726 136.048 38.4359 135.699 38.2322C135.349 38.0284 134.898 37.781 134.345 37.4899C133.792 37.1988 133.253 37.0241 132.729 36.9659C132.205 36.9077 131.594 36.8786 130.895 36.8786H121.333L121.376 49.7598ZM121.289 24.565L121.333 31.5951H137.401C140.574 31.5951 142.161 30.4889 142.161 28.2765C142.161 26.9957 141.783 26.0642 141.026 25.482C140.269 24.8707 139.061 24.565 137.401 24.565H121.289ZM185.522 49.7598H154.738V19.1942H185.522V24.7397H161.332V30.9401H182.946V36.0926H161.332V44.2143H185.522V49.7598ZM197.662 49.7598H191.069V19.1942H196.92L219.408 40.5028V19.1942H225.957V49.7598H220.106L197.662 28.4949V49.7598Z" fill="white"/>
</svg>
