<svg width="20" height="20" viewBox="0 0 20 20" fill="none" xmlns="http://www.w3.org/2000/svg">
<path d="M12.5001 3.81796C10.8945 3.15435 9.09314 3.14379 7.47979 3.78854C5.86644 4.43329 4.56853 5.6824 3.86246 7.26988C3.15638 8.85735 3.09793 10.6577 3.69956 12.2877C4.30118 13.9176 5.51534 15.2483 7.08347 15.9963M7.50014 12.4996V16.6663H3.33347" stroke="#CACFD3" stroke-width="1.66667" stroke-linecap="round" stroke-linejoin="round"/>
<path d="M10.8333 17.5C11.0543 17.5 11.2663 17.4122 11.4226 17.2559C11.5789 17.0996 11.6667 16.8877 11.6667 16.6667C11.6667 16.4457 11.5789 16.2337 11.4226 16.0774C11.2663 15.9211 11.0543 15.8333 10.8333 15.8333C10.6123 15.8333 10.4004 15.9211 10.2441 16.0774C10.0878 16.2337 10 16.4457 10 16.6667C10 16.8877 10.0878 17.0996 10.2441 17.2559C10.4004 17.4122 10.6123 17.5 10.8333 17.5ZM17.5 9.16667C17.5 8.94565 17.4122 8.73369 17.2559 8.57741C17.0996 8.42113 16.8877 8.33333 16.6667 8.33333C16.4457 8.33333 16.2337 8.42113 16.0774 8.57741C15.9211 8.73369 15.8333 8.94565 15.8333 9.16667C15.8333 9.38768 15.9211 9.59964 16.0774 9.75592C16.2337 9.9122 16.4457 10 16.6667 10C16.8877 10 17.0996 9.9122 17.2559 9.75592C17.4122 9.59964 17.5 9.38768 17.5 9.16667ZM16.6083 11.89C16.7039 11.9443 16.7877 12.017 16.8551 12.1039C16.9224 12.1907 16.9719 12.29 17.0007 12.3961C17.0295 12.5022 17.037 12.6129 17.0228 12.7218C17.0087 12.8308 16.9731 12.9359 16.9181 13.0311C16.8632 13.1263 16.7899 13.2096 16.7026 13.2764C16.6153 13.3432 16.5157 13.392 16.4095 13.4201C16.3032 13.4482 16.1924 13.455 16.0836 13.4401C15.9747 13.4252 15.8698 13.3889 15.775 13.3333C15.5852 13.222 15.447 13.0402 15.3908 12.8274C15.3346 12.6147 15.3647 12.3883 15.4748 12.1978C15.5848 12.0072 15.7657 11.8679 15.9781 11.8102C16.1905 11.7526 16.417 11.7812 16.6083 11.89ZM14.4733 16.0783C14.5689 16.024 14.6527 15.9513 14.7201 15.8645C14.7874 15.7776 14.8369 15.6783 14.8657 15.5722C14.8945 15.4662 14.902 15.3555 14.8878 15.2465C14.8737 15.1375 14.8381 15.0324 14.7831 14.9372C14.7282 14.8421 14.655 14.7587 14.5677 14.6919C14.4803 14.6252 14.3807 14.5763 14.2745 14.5483C14.1682 14.5202 14.0574 14.5134 13.9486 14.5283C13.8397 14.5431 13.7348 14.5794 13.64 14.635C13.4502 14.7463 13.312 14.9282 13.2558 15.1409C13.1996 15.3536 13.2297 15.58 13.3398 15.7706C13.4498 15.9612 13.6307 16.1005 13.8431 16.1581C14.0555 16.2158 14.282 16.1871 14.4733 16.0783ZM15.7725 6.66667C15.6777 6.72225 15.5728 6.75853 15.4639 6.77342C15.3551 6.7883 15.2443 6.78151 15.138 6.75342C15.0318 6.72533 14.9322 6.6765 14.8448 6.60974C14.7575 6.54298 14.6843 6.45962 14.6294 6.36444C14.5744 6.26926 14.5388 6.16416 14.5247 6.05518C14.5105 5.94619 14.518 5.83548 14.5468 5.72942C14.5756 5.62336 14.6251 5.52404 14.6924 5.43719C14.7598 5.35033 14.8436 5.27765 14.9392 5.22333C15.1305 5.11457 15.357 5.08589 15.5694 5.14354C15.7818 5.2012 15.9627 5.34052 16.0727 5.53109C16.1828 5.72166 16.2129 5.94802 16.1567 6.16077C16.1005 6.37351 15.9623 6.55537 15.7725 6.66667Z" fill="#CACFD3"/>
</svg>
