<svg width="20" height="20" viewBox="0 0 20 20" fill="none" xmlns="http://www.w3.org/2000/svg">
<path fill-rule="evenodd" clip-rule="evenodd" d="M2.49969 9.58333C2.49969 5.21108 6.0441 1.66667 10.4164 1.66667C14.7886 1.66667 18.333 5.21108 18.333 9.58333C18.333 13.9556 14.7886 17.5 10.4164 17.5C9.41499 17.5 8.45519 17.3137 7.57107 16.9731C7.49527 16.9439 7.45137 16.927 7.41899 16.9154C7.41503 16.9139 7.4116 16.9127 7.40869 16.9117C7.40763 16.9118 7.4065 16.9119 7.40529 16.912C7.37894 16.914 7.34297 16.9176 7.27418 16.9248L3.00666 17.3659C2.99727 17.3669 2.98786 17.3678 2.97842 17.3688C2.79993 17.3873 2.61373 17.4066 2.45799 17.4084C2.3032 17.4102 2.02421 17.4015 1.7567 17.2383C1.44313 17.047 1.22956 16.7275 1.17271 16.3646C1.12421 16.0551 1.22278 15.7939 1.28363 15.6516C1.34486 15.5084 1.43388 15.3437 1.5192 15.1858L2.89576 12.6379C2.95531 12.5277 2.98714 12.4684 3.00856 12.4242C3.00968 12.4219 3.01072 12.4197 3.01168 12.4177C3.01008 12.4119 3.00813 12.4051 3.00578 12.3971C2.98774 12.3361 2.95998 12.2533 2.91281 12.1133C2.64468 11.3178 2.49969 10.4667 2.49969 9.58333ZM10.4164 3.33333C6.96457 3.33333 4.16635 6.13155 4.16635 9.58333C4.16635 10.2833 4.28111 10.9548 4.49218 11.581C4.49888 11.6009 4.5058 11.6212 4.51285 11.6419C4.58047 11.8407 4.65989 12.0742 4.67661 12.2854C4.69185 12.478 4.67796 12.6408 4.63032 12.828C4.57822 13.0327 4.47233 13.2274 4.38644 13.3853C4.37812 13.4006 4.36999 13.4155 4.36211 13.4301L3.14894 15.6756L7.10281 15.2669C7.11178 15.266 7.12098 15.265 7.1304 15.264C7.22957 15.2536 7.35247 15.2407 7.47308 15.2453C7.58332 15.2495 7.67621 15.2619 7.7837 15.2867C7.9017 15.3139 8.02971 15.3634 8.13767 15.4052C8.14875 15.4095 8.15961 15.4137 8.17023 15.4178C8.8662 15.686 9.62308 15.8333 10.4164 15.8333C13.8681 15.8333 16.6664 13.0351 16.6664 9.58333C16.6664 6.13155 13.8681 3.33333 10.4164 3.33333ZM10.4164 6.25C10.8766 6.25 11.2497 6.6231 11.2497 7.08333V8.75H12.9164C13.3766 8.75 13.7497 9.1231 13.7497 9.58333C13.7497 10.0436 13.3766 10.4167 12.9164 10.4167H11.2497V12.0833C11.2497 12.5436 10.8766 12.9167 10.4164 12.9167C9.95612 12.9167 9.58302 12.5436 9.58302 12.0833V10.4167H7.91635C7.45612 10.4167 7.08302 10.0436 7.08302 9.58333C7.08302 9.1231 7.45612 8.75 7.91635 8.75H9.58302V7.08333C9.58302 6.6231 9.95612 6.25 10.4164 6.25Z" fill="white"/>
</svg>
