<svg width="28" height="28" viewBox="0 0 28 28" fill="none" xmlns="http://www.w3.org/2000/svg">
<path fill-rule="evenodd" clip-rule="evenodd" d="M2.33333 14C2.33333 7.5565 7.5565 2.33333 14 2.33333C20.4435 2.33333 25.6667 7.5565 25.6667 14C25.6667 20.4435 20.4435 25.6667 14 25.6667C7.5565 25.6667 2.33333 20.4435 2.33333 14ZM16.9447 9.6215C17.1431 9.56734 17.3524 9.56662 17.5512 9.6194C17.75 9.67218 17.9313 9.77659 18.0768 9.92205C18.2222 10.0675 18.3267 10.2488 18.3794 10.4477C18.4322 10.6465 18.4315 10.8557 18.3773 11.0542L17.0707 15.8433C16.9905 16.137 16.8351 16.4046 16.6199 16.6199C16.4046 16.8351 16.137 16.9905 15.8433 17.0707L11.0542 18.3773C10.8557 18.4315 10.6465 18.4322 10.4477 18.3794C10.2488 18.3267 10.0675 18.2222 9.92205 18.0768C9.77659 17.9313 9.67218 17.75 9.6194 17.5512C9.56662 17.3524 9.56734 17.1431 9.6215 16.9447L10.9282 12.1555C11.0083 11.8618 11.1637 11.5942 11.3789 11.3789C11.5942 11.1637 11.8618 11.0083 12.1555 10.9282L16.9447 9.6215Z" fill="#FAFAFA"/>
</svg>
