<svg width="32" height="32" viewBox="0 0 32 32" fill="none" xmlns="http://www.w3.org/2000/svg">
<path fill-rule="evenodd" clip-rule="evenodd" d="M16 2.66669C8.64002 2.66669 2.66669 8.64002 2.66669 16C2.66669 23.36 8.64002 29.3334 16 29.3334C23.36 29.3334 29.3334 23.36 29.3334 16C29.3334 8.64002 23.36 2.66669 16 2.66669ZM24.48 22.44C22.5734 20.12 17.9467 19.3334 16 19.3334C14.0534 19.3334 9.42669 20.12 7.52002 22.44C6.16002 20.6534 5.33335 18.4267 5.33335 16C5.33335 10.12 10.12 5.33335 16 5.33335C21.88 5.33335 26.6667 10.12 26.6667 16C26.6667 18.4267 25.84 20.6534 24.48 22.44ZM11.3334 12.6667C11.3334 10.08 13.4134 8.00002 16 8.00002C18.5867 8.00002 20.6667 10.08 20.6667 12.6667C20.6667 15.2534 18.5867 17.3334 16 17.3334C13.4134 17.3334 11.3334 15.2534 11.3334 12.6667Z" fill="white"/>
</svg>
