<svg width="400" height="400" viewBox="0 0 400 400" fill="none" xmlns="http://www.w3.org/2000/svg">
<path d="M200.385 89.2307C286.201 89.2308 355.77 158.799 355.77 244.615C355.769 330.432 286.201 400 200.385 400C176.156 400 153.224 394.452 132.786 384.562C131.326 383.855 129.712 383.514 128.093 383.608L68.7574 387.031C62.8742 387.37 58.1837 382.185 59.1096 376.365L66.7722 328.201C67.1148 326.048 66.6749 323.848 65.588 321.958C52.4914 299.182 45 272.774 45 244.615C45 158.799 114.568 89.2307 200.385 89.2307Z" fill="white"/>
<path d="M194.733 212.378C190.949 204.736 194.813 195.193 203.054 193.005C208.995 191.429 215.214 194.311 217.648 199.955C220.72 207.079 224.621 216.768 226.538 224.131C228.411 231.323 229.705 240.944 230.495 248.208C231.155 254.283 227.192 259.818 221.285 261.386C213.024 263.579 204.923 257.167 204.422 248.634C204.06 242.452 203.334 235.678 201.923 230.285C200.472 224.739 197.604 218.177 194.733 212.378Z" fill="black"/>
<path d="M280.886 193.916C277.103 186.274 280.966 176.732 289.208 174.544C295.149 172.967 301.368 175.85 303.802 181.493C306.874 188.617 310.775 198.307 312.692 205.67C314.565 212.861 315.859 222.483 316.649 229.747C317.309 235.822 313.346 241.357 307.439 242.925C299.178 245.118 291.076 238.706 290.576 230.173C290.213 223.991 289.488 217.217 288.077 211.823C286.626 206.278 283.757 199.715 280.886 193.916Z" fill="black"/>
<path d="M160.385 46.1538L135.769 0L197.308 41.5385L172.692 67.6923L203.462 127.692L135.769 67.6923L160.385 46.1538Z" fill="#FF3D33"/>
</svg>
