<svg width="181" height="40" viewBox="0 0 181 40" fill="none" xmlns="http://www.w3.org/2000/svg">
<g filter="url(#filter0_i_2542_5145)">
<rect x="0.316895" width="180.366" height="40" rx="20" fill="#818CF8" fill-opacity="0.03"/>
<g clip-path="url(#clip0_2542_5145)">
<path d="M51.7423 25.0671V25.0798C51.5425 25.3333 51.33 25.5665 51.1071 25.7946L50.9099 25.9923C50.5664 26.3255 50.1992 26.6338 49.8112 26.915C48.01 28.2429 45.8232 28.9587 43.5773 28.9556H38.9415C38.2536 28.9559 37.5672 28.8888 36.8926 28.7553L30.9379 31.7363C30.8442 31.776 30.7411 31.789 30.6403 31.774C30.5396 31.7589 30.445 31.7164 30.3673 31.6511C30.2896 31.5858 30.2319 31.5003 30.2006 31.4043C30.1692 31.3083 30.1656 31.2056 30.19 31.1076L31.591 25.9644L31.5397 25.9188C29.5903 23.9994 28.4857 21.3957 28.4663 18.6743C28.4177 13.0672 33.0764 8.45125 38.711 8.22058C38.8545 8.22058 38.9953 8.22058 39.1387 8.22058H41.6999C42.1451 8.22058 42.572 8.39543 42.8871 8.70672C43.2021 9.01802 43.3794 9.44032 43.3801 9.8809V9.97215C43.3801 10.4044 43.2066 10.819 42.8977 11.1247C42.5889 11.4303 42.17 11.6021 41.7332 11.6021H38.8596C37.9365 11.6025 37.0227 11.7853 36.1719 12.1397C35.321 12.4941 34.5502 13.013 33.9045 13.6659C33.2588 14.3189 32.7513 15.0928 32.4116 15.9424C32.072 16.7919 31.907 17.7 31.9265 18.6134C31.9265 18.6844 31.9265 18.7554 31.9265 18.8263C31.9811 19.9212 32.3094 20.9855 32.8818 21.9239C33.5204 22.9654 34.4199 23.826 35.4932 24.4224C36.5665 25.0188 37.7772 25.3308 39.0081 25.3282H43.5952C45.4233 25.3316 47.1781 24.6169 48.4742 23.3409L48.5434 23.2724C48.6505 23.1552 48.767 23.0467 48.8917 22.948C49.0819 22.7738 49.3055 22.6392 49.5492 22.5521C49.7929 22.465 50.0519 22.4273 50.3106 22.441C50.577 22.4545 50.8382 22.5199 51.079 22.6337C51.1835 22.6858 51.2823 22.7486 51.3735 22.8212C52.0292 23.3865 52.2571 24.4866 51.7423 25.0671Z" fill="white"/>
<path d="M36.4982 19.9999C37.3853 19.9999 38.1086 19.2808 38.1137 18.3937C38.1188 17.5066 37.4038 16.7874 36.5167 16.7874C35.6296 16.7874 34.9063 17.5066 34.9012 18.3937C34.8961 19.2808 35.6111 19.9999 36.4982 19.9999Z" fill="white"/>
<path d="M41.2285 20C42.1156 20 42.8348 19.2808 42.8348 18.3937C42.8348 17.5066 42.1156 16.7874 41.2285 16.7874C40.3413 16.7874 39.6222 17.5066 39.6222 18.3937C39.6222 19.2808 40.3413 20 41.2285 20Z" fill="white"/>
<path d="M31.8296 18.6134C31.8296 18.6844 31.8296 18.7554 31.8296 18.8263C31.7749 18.4062 31.7475 17.9828 31.7474 17.5589C31.7443 15.4827 32.3893 13.4591 33.5893 11.7806C34.7893 10.102 36.4821 8.85533 38.4233 8.22058C38.5627 8.22058 38.6996 8.22058 38.839 8.22058H41.3282C41.7608 8.22058 42.1758 8.39543 42.4819 8.70672C42.7881 9.01802 42.9604 9.44032 42.961 9.8809V9.97215C42.961 10.4044 42.7924 10.819 42.4923 11.1247C42.1921 11.4303 41.785 11.6021 41.3605 11.6021H38.5677C37.6705 11.6025 36.7825 11.7853 35.9556 12.1397C35.1287 12.4941 34.3795 13.013 33.752 13.6659C33.1245 14.3189 32.6312 15.0928 32.3011 15.9424C31.971 16.7919 31.8107 17.7 31.8296 18.6134Z" fill="white"/>
<path d="M44.334 18.3937C44.3346 17.9679 44.5042 17.5597 44.8054 17.2586C45.1067 16.9575 45.5151 16.7881 45.9412 16.7874C46.087 16.7882 46.2321 16.8082 46.3727 16.8469C46.7465 16.9515 47.0699 17.1878 47.2829 17.5122C47.4959 17.8365 47.5843 18.227 47.5317 18.6114C47.4791 18.9958 47.289 19.3482 46.9967 19.6034C46.7043 19.8587 46.3294 19.9995 45.9412 20C45.8681 20 45.7952 19.9951 45.7229 19.9851C45.3381 19.9324 44.9853 19.7421 44.73 19.4496C44.4747 19.157 44.334 18.7819 44.334 18.3937Z" fill="white"/>
</g>
<path d="M77.98 16.7404C77.98 17.1763 77.8243 17.5422 77.513 17.838C77.2172 18.1493 76.8514 18.305 76.4155 18.305H67.0748C66.7791 18.3206 66.53 18.3906 66.3276 18.5152C66.1408 18.6241 66.0007 18.7565 65.9073 18.9121C65.8139 19.0522 65.7671 19.2001 65.7671 19.3558C65.7671 19.5115 65.8139 19.6672 65.9073 19.8228C66.0007 19.963 66.1408 20.0953 66.3276 20.2198C66.53 20.3288 66.7791 20.3911 67.0748 20.4066H73.7067C74.7964 20.4378 75.6916 20.6946 76.3921 21.1772C77.1082 21.6443 77.6142 22.1891 77.91 22.8118C78.2213 23.419 78.377 24.0417 78.377 24.68C78.377 25.3027 78.2213 25.9254 77.91 26.5481C77.5986 27.1552 77.0927 27.7001 76.3921 28.1827C75.6916 28.6497 74.7964 28.8832 73.7067 28.8832H73.5666C73.4732 28.8988 73.3798 28.9066 73.2863 28.9066H64.4595C64.0236 28.9066 63.6499 28.7587 63.3386 28.4629C63.0428 28.1516 62.8949 27.7779 62.8949 27.342C62.8949 26.9061 63.0506 26.5403 63.3619 26.2445C63.6577 25.9332 64.0236 25.7775 64.4595 25.7775H73.8468C74.1426 25.7931 74.3839 25.7386 74.5707 25.614C74.7731 25.4895 74.921 25.3494 75.0144 25.1937C75.1078 25.0225 75.1545 24.8512 75.1545 24.68C75.1545 24.571 75.1078 24.4231 75.0144 24.2363C74.921 24.0339 74.7731 23.8704 74.5707 23.7459C74.3839 23.6214 74.1426 23.5513 73.8468 23.5357H67.2149C66.1252 23.5046 65.2223 23.2555 64.5062 22.7885C63.8056 22.3215 63.2997 21.7922 62.9883 21.2006C62.6925 20.5934 62.5446 19.9785 62.5446 19.3558C62.5446 18.7487 62.7003 18.1493 63.0117 17.5577C63.323 16.9506 63.829 16.4135 64.5295 15.9465C65.2301 15.4795 66.1252 15.2304 67.2149 15.1992H67.3551C67.4485 15.1837 67.5419 15.1759 67.6353 15.1759H76.4155C76.8514 15.1759 77.2172 15.3316 77.513 15.6429C77.8243 15.9387 77.98 16.3045 77.98 16.7404ZM86.2465 25.3338C86.2465 24.8979 86.3944 24.5321 86.6901 24.2363C87.0015 23.9249 87.3751 23.7693 87.811 23.7693H91.3838L90.7767 22.0412C90.5276 21.403 90.2785 20.8036 90.0294 20.2432C89.7959 19.6672 89.5235 19.1456 89.2121 18.6786C88.9319 18.2116 88.6128 17.9625 88.2547 17.9314C87.8811 17.9625 87.5464 18.2116 87.2506 18.6786C86.9548 19.1456 86.6824 19.6672 86.4333 20.2432C86.1998 20.8036 85.9585 21.403 85.7094 22.0412L83.491 28.1126C83.3353 28.4396 83.1329 28.712 82.8838 28.9299C82.6503 29.1323 82.2923 29.2335 81.8097 29.2335C81.3582 29.2335 80.9846 29.0778 80.6888 28.7665C80.4086 28.4551 80.284 28.0815 80.3152 27.6456C80.3307 27.4432 80.3774 27.2564 80.4553 27.0852L83.0239 20.4533C83.7401 18.7098 84.4562 17.3009 85.1723 16.2267C85.8728 15.1681 86.9003 14.631 88.2547 14.6154C89.5935 14.631 90.6132 15.1681 91.3137 16.2267C92.0299 17.2697 92.746 18.6786 93.4621 20.4533L96.0308 27.0852C96.1086 27.2564 96.1553 27.4432 96.1709 27.6456C96.202 28.0815 96.0697 28.4551 95.7739 28.7665C95.4937 29.0778 95.1278 29.2335 94.6764 29.2335C94.1626 29.2335 93.7812 29.1323 93.5321 28.9299C93.2986 28.712 93.104 28.4396 92.9484 28.1126L92.5047 26.8984H87.811C87.3751 26.8984 87.0093 26.7427 86.7135 26.4313C86.4021 26.1355 86.2465 25.7697 86.2465 25.3338ZM105.955 14.5454C106.765 14.5454 107.559 14.6388 108.337 14.8256C109.131 15.0124 109.886 15.2926 110.602 15.6663C111.318 16.0243 111.949 16.5069 112.494 17.1141C113.054 17.7212 113.358 18.4451 113.404 19.2858V20.2665V27.7157C113.311 28.6497 112.797 29.1557 111.863 29.2335C111.427 29.2335 111.046 29.0934 110.719 28.8132C110.408 28.5174 110.252 28.1516 110.252 27.7157V20.0097C110.221 19.5271 110.034 19.1301 109.691 18.8187C109.364 18.4918 108.991 18.2349 108.571 18.0481C108.166 17.8613 107.738 17.7212 107.286 17.6278C106.85 17.5344 106.407 17.4877 105.955 17.4877C105.504 17.4877 105.052 17.5344 104.601 17.6278C104.165 17.7212 103.737 17.8613 103.316 18.0481C102.912 18.2349 102.538 18.4918 102.196 18.8187C101.869 19.1301 101.69 19.5271 101.658 20.0097V27.7157C101.581 28.6497 101.075 29.1557 100.141 29.2335C99.7047 29.2335 99.3233 29.0934 98.9964 28.8132C98.6851 28.5174 98.5294 28.1516 98.5294 27.7157V20.2665V19.2858C98.5761 18.4451 98.8719 17.7212 99.4167 17.1141C99.9616 16.5069 100.592 16.0243 101.308 15.6663C102.024 15.2926 102.772 15.0124 103.55 14.8256C104.344 14.6388 105.146 14.5454 105.955 14.5454ZM117.958 14.8023C118.378 14.8178 118.736 14.9735 119.032 15.2693C119.328 15.5495 119.484 15.8998 119.499 16.3201V27.7624C119.406 28.6964 118.892 29.2024 117.958 29.2802C117.522 29.2802 117.141 29.1401 116.814 28.8599C116.502 28.5641 116.347 28.1983 116.347 27.7624V16.3201C116.362 15.8842 116.526 15.5262 116.837 15.2459C117.148 14.9502 117.522 14.8023 117.958 14.8023ZM121.951 18.9121C122.994 18.2116 124.403 17.5033 126.178 16.7871L130.007 15.1525C130.179 15.0747 130.365 15.028 130.568 15.0124C131.004 14.9813 131.377 15.1136 131.689 15.4094C132 15.6896 132.156 16.0555 132.156 16.5069C132.156 17.0207 132.047 17.4021 131.829 17.6511C131.626 17.8847 131.362 18.0793 131.035 18.2349L127.766 19.4726C127.127 19.7217 126.52 19.9707 125.944 20.2198C125.384 20.4533 124.87 20.7258 124.403 21.0371C123.936 21.3173 123.687 21.6365 123.656 21.9945C123.687 22.337 123.936 22.6562 124.403 22.9519C124.87 23.2633 125.384 23.5435 125.944 23.7926C126.52 24.0261 127.127 24.2674 127.766 24.5165L131.408 25.8475C131.735 26.0032 132 26.2056 132.202 26.4547C132.42 26.6882 132.529 27.0618 132.529 27.5756C132.529 28.027 132.374 28.4006 132.062 28.6964C131.751 28.9766 131.377 29.1012 130.941 29.0701C130.739 29.0545 130.552 29.0078 130.381 28.9299L126.178 27.2019C124.403 26.4858 122.986 25.7775 121.928 25.0769C120.885 24.3608 120.355 23.3334 120.34 21.9945C120.355 20.6557 120.892 19.6282 121.951 18.9121ZM140.142 25.3338C140.142 24.8979 140.29 24.5321 140.586 24.2363C140.897 23.9249 141.271 23.7693 141.706 23.7693H145.279L144.672 22.0412C144.423 21.403 144.174 20.8036 143.925 20.2432C143.691 19.6672 143.419 19.1456 143.107 18.6786C142.827 18.2116 142.508 17.9625 142.15 17.9314C141.776 17.9625 141.442 18.2116 141.146 18.6786C140.85 19.1456 140.578 19.6672 140.329 20.2432C140.095 20.8036 139.854 21.403 139.605 22.0412L137.386 28.1126C137.231 28.4396 137.028 28.712 136.779 28.9299C136.546 29.1323 136.188 29.2335 135.705 29.2335C135.254 29.2335 134.88 29.0778 134.584 28.7665C134.304 28.4551 134.179 28.0815 134.211 27.6456C134.226 27.4432 134.273 27.2564 134.351 27.0852L136.919 20.4533C137.635 18.7098 138.352 17.3009 139.068 16.2267C139.768 15.1681 140.796 14.631 142.15 14.6154C143.489 14.631 144.509 15.1681 145.209 16.2267C145.925 17.2697 146.641 18.6786 147.357 20.4533L149.926 27.0852C150.004 27.2564 150.051 27.4432 150.066 27.6456C150.097 28.0815 149.965 28.4551 149.669 28.7665C149.389 29.0778 149.023 29.2335 148.572 29.2335C148.058 29.2335 147.677 29.1323 147.428 28.9299C147.194 28.712 146.999 28.4396 146.844 28.1126L146.4 26.8984H141.706C141.271 26.8984 140.905 26.7427 140.609 26.4313C140.298 26.1355 140.142 25.7697 140.142 25.3338Z" fill="white"/>
</g>
<defs>
<filter id="filter0_i_2542_5145" x="-0.683105" y="-1" width="182.366" height="42" filterUnits="userSpaceOnUse" color-interpolation-filters="sRGB">
<feFlood flood-opacity="0" result="BackgroundImageFix"/>
<feBlend mode="normal" in="SourceGraphic" in2="BackgroundImageFix" result="shape"/>
<feColorMatrix in="SourceAlpha" type="matrix" values="0 0 0 0 0 0 0 0 0 0 0 0 0 0 0 0 0 0 127 0" result="hardAlpha"/>
<feOffset dy="1.42857"/>
<feComposite in2="hardAlpha" operator="arithmetic" k2="-1" k3="1"/>
<feColorMatrix type="matrix" values="0 0 0 0 0.647059 0 0 0 0 0.705882 0 0 0 0 0.988235 0 0 0 0.3 0"/>
<feBlend mode="normal" in2="shape" result="effect1_innerShadow_2542_5145"/>
</filter>
<clipPath id="clip0_2542_5145">
<rect width="23.5588" height="23.5588" fill="white" transform="translate(28.4668 8.22058)"/>
</clipPath>
</defs>
</svg>
