<svg width="633" height="180" viewBox="0 0 633 180" fill="none" xmlns="http://www.w3.org/2000/svg">
<path d="M69.9229 40.1538C108.54 40.1538 139.846 71.4593 139.846 110.077C139.846 148.694 108.54 180 69.9229 180C59.0203 179.999 48.7013 177.503 39.5043 173.053C38.847 172.735 38.121 172.581 37.3921 172.623L10.6905 174.164C8.04307 174.317 5.93232 171.983 6.34899 169.365L9.7974 147.69C9.95156 146.721 9.75361 145.731 9.26452 144.88C3.37128 134.631 0 122.748 0 110.077C0.000119574 71.4594 31.3056 40.1539 69.9229 40.1538Z" fill="white"/>
<path d="M67.3798 95.57C65.6773 92.1311 67.4159 87.8371 71.1247 86.8526C73.7978 86.143 76.5966 87.4401 77.6918 89.9798C79.0743 93.1856 80.8296 97.5457 81.6925 100.859C82.5354 104.095 83.1176 108.425 83.4728 111.694C83.7699 114.428 81.9865 116.918 79.3286 117.624C75.6108 118.611 71.9653 115.725 71.7401 111.885C71.577 109.104 71.2506 106.055 70.6156 103.628C69.9626 101.133 68.6718 98.1796 67.3798 95.57Z" fill="black"/>
<path d="M106.148 87.2622C104.446 83.8233 106.184 79.5292 109.893 78.5447C112.566 77.8351 115.365 79.1323 116.46 81.6719C117.843 84.8777 119.598 89.2378 120.461 92.5512C121.304 95.7875 121.886 100.117 122.241 103.386C122.539 106.12 120.755 108.61 118.097 109.316C114.379 110.303 110.734 107.417 110.509 103.578C110.346 100.796 110.019 97.7474 109.384 95.3204C108.731 92.8248 107.44 89.8717 106.148 87.2622Z" fill="black"/>
<path d="M51.9232 20.7692L40.8463 0L68.5386 18.6923L57.4617 30.4615L71.3079 57.4615L40.8463 30.4615L51.9232 20.7692Z" fill="#FF3D33"/>
<path d="M220.129 139.92C192.689 139.92 178.969 125.72 178.969 97.32H197.209C197.209 107 199.049 114 202.729 118.32C206.489 122.56 212.289 124.68 220.129 124.68C227.969 124.68 233.769 122.52 237.529 118.2C241.289 113.88 243.169 106.92 243.169 97.32V69.24H190.129V54H261.169V97.32C261.169 125.72 247.489 139.92 220.129 139.92ZM297.72 138H279.6V54H297.72V138ZM334.634 138H316.514V54H382.874C391.354 54 397.954 56.04 402.674 60.12C407.474 64.2 409.874 69.56 409.874 76.2C409.874 82.84 407.394 88.04 402.434 91.8C397.554 95.48 391.034 97.32 382.874 97.32L373.994 97.44V97.92C377.994 98.16 381.594 98.88 384.794 100.08C387.994 101.28 390.874 102.8 393.434 104.64C395.994 106.48 398.554 109.12 401.114 112.56C403.754 116 406.154 119.6 408.314 123.36C410.554 127.12 413.234 132 416.354 138H395.234C392.674 133.44 390.834 130.24 389.714 128.4C388.674 126.48 387.234 123.96 385.394 120.84C383.554 117.64 382.194 115.48 381.314 114.36C380.434 113.24 379.234 111.76 377.714 109.92C376.194 108.08 374.954 106.88 373.994 106.32C373.034 105.76 371.794 105.08 370.274 104.28C368.754 103.48 367.274 103 365.834 102.84C364.394 102.68 362.714 102.6 360.794 102.6H334.514L334.634 138ZM334.394 68.76L334.514 88.08H378.674C387.394 88.08 391.754 85.04 391.754 78.96C391.754 75.44 390.714 72.88 388.634 71.28C386.554 69.6 383.234 68.76 378.674 68.76H334.394ZM510.919 138H426.319V54H510.919V69.24H444.439V86.28H503.839V100.44H444.439V122.76H510.919V138ZM544.282 138H526.162V54H542.242L604.042 112.56V54H622.042V138H605.962L544.282 79.56V138Z" fill="white"/>
</svg>
