<svg width="129" height="26" viewBox="0 0 129 26" fill="none" xmlns="http://www.w3.org/2000/svg">
<path d="M28.8653 20.6059L24.1205 25.6521C24.0179 25.7617 23.8936 25.8492 23.7554 25.909C23.6172 25.9689 23.468 25.9999 23.3172 26H0.825085C0.717811 26 0.61288 25.9689 0.523142 25.9106C0.433406 25.8523 0.36276 25.7693 0.319851 25.6718C0.276941 25.5742 0.263634 25.4664 0.281558 25.3615C0.299482 25.2566 0.347856 25.1591 0.420762 25.0811L5.16017 20.0348C5.26281 19.9252 5.38708 19.8378 5.5253 19.7779C5.66349 19.7181 5.81266 19.6871 5.96346 19.6869H28.4556C28.5638 19.6847 28.6703 19.7143 28.7616 19.772C28.8529 19.8297 28.9252 19.9128 28.9689 20.0111C29.0128 20.1093 29.0262 20.2182 29.0077 20.324C28.9892 20.4299 28.9397 20.5279 28.8653 20.6059ZM24.1205 10.4417C24.0175 10.3326 23.8931 10.2454 23.755 10.1856C23.6169 10.1258 23.4679 10.0945 23.3172 10.0938H0.825085C0.717811 10.0938 0.61288 10.1249 0.523142 10.1832C0.433406 10.2415 0.36276 10.3245 0.319851 10.422C0.276941 10.5196 0.263634 10.6274 0.281558 10.7323C0.299482 10.8372 0.347856 10.9347 0.420762 11.0127L5.16017 16.0616C5.26318 16.1707 5.38756 16.2578 5.52567 16.3177C5.66378 16.3775 5.81277 16.4087 5.96346 16.4095H28.4556C28.5627 16.4089 28.6671 16.3775 28.7566 16.319C28.846 16.2605 28.9161 16.1775 28.9587 16.08C29.0013 15.9826 29.0144 15.875 28.9962 15.7703C28.9783 15.6657 28.9301 15.5685 28.8572 15.4906L24.1205 10.4417ZM0.825085 6.81633H23.3172C23.468 6.8162 23.6172 6.7852 23.7554 6.72534C23.8936 6.6655 24.0179 6.57802 24.1205 6.46841L28.8653 1.42218C28.9397 1.34423 28.9892 1.24617 29.0077 1.14034C29.0262 1.0345 29.0128 0.925616 28.9689 0.827384C28.9252 0.729152 28.8529 0.645963 28.7616 0.588284C28.6703 0.530604 28.5638 0.501011 28.4556 0.503229H5.96346C5.81266 0.503386 5.66349 0.534361 5.5253 0.594222C5.38708 0.654082 5.26281 0.741544 5.16017 0.851154L0.420762 5.89739C0.347856 5.97544 0.299482 6.07291 0.281558 6.17782C0.263634 6.28273 0.276941 6.39054 0.319851 6.48806C0.36276 6.58559 0.433406 6.66858 0.523142 6.72688C0.61288 6.7852 0.717811 6.81628 0.825085 6.81633Z" fill="white"/>
<path d="M28.8653 20.6059L24.1205 25.6521C24.0179 25.7617 23.8936 25.8492 23.7554 25.909C23.6172 25.9689 23.468 25.9999 23.3172 26H0.825085C0.717811 26 0.61288 25.9689 0.523142 25.9106C0.433406 25.8523 0.36276 25.7693 0.319851 25.6718C0.276941 25.5742 0.263634 25.4664 0.281558 25.3615C0.299482 25.2566 0.347856 25.1591 0.420762 25.0811L5.16017 20.0348C5.26281 19.9252 5.38708 19.8378 5.5253 19.7779C5.66349 19.7181 5.81266 19.6871 5.96346 19.6869H28.4556C28.5638 19.6847 28.6703 19.7143 28.7616 19.772C28.8529 19.8297 28.9252 19.9128 28.9689 20.0111C29.0128 20.1093 29.0262 20.2182 29.0077 20.324C28.9892 20.4299 28.9397 20.5279 28.8653 20.6059ZM24.1205 10.4417C24.0175 10.3326 23.8931 10.2454 23.755 10.1856C23.6169 10.1258 23.4679 10.0945 23.3172 10.0938H0.825085C0.717811 10.0938 0.61288 10.1249 0.523142 10.1832C0.433406 10.2415 0.36276 10.3245 0.319851 10.422C0.276941 10.5196 0.263634 10.6274 0.281558 10.7323C0.299482 10.8372 0.347856 10.9347 0.420762 11.0127L5.16017 16.0616C5.26318 16.1707 5.38756 16.2578 5.52567 16.3177C5.66378 16.3775 5.81277 16.4087 5.96346 16.4095H28.4556C28.5627 16.4089 28.6671 16.3775 28.7566 16.319C28.846 16.2605 28.9161 16.1775 28.9587 16.08C29.0013 15.9826 29.0144 15.875 28.9962 15.7703C28.9783 15.6657 28.9301 15.5685 28.8572 15.4906L24.1205 10.4417ZM0.825085 6.81633H23.3172C23.468 6.8162 23.6172 6.7852 23.7554 6.72534C23.8936 6.6655 24.0179 6.57802 24.1205 6.46841L28.8653 1.42218C28.9397 1.34423 28.9892 1.24617 29.0077 1.14034C29.0262 1.0345 29.0128 0.925616 28.9689 0.827384C28.9252 0.729152 28.8529 0.645963 28.7616 0.588284C28.6703 0.530604 28.5638 0.501011 28.4556 0.503229H5.96346C5.81266 0.503386 5.66349 0.534361 5.5253 0.594222C5.38708 0.654082 5.26281 0.741544 5.16017 0.851154L0.420762 5.89739C0.347856 5.97544 0.299482 6.07291 0.281558 6.17782C0.263634 6.28273 0.276941 6.39054 0.319851 6.48806C0.36276 6.58559 0.433406 6.66858 0.523142 6.72688C0.61288 6.7852 0.717811 6.81628 0.825085 6.81633Z" fill="url(#paint0_linear_2593_972)"/>
<path d="M38.6962 14.4604H43.8218C44.5425 14.4604 45.1265 15.0498 45.1265 15.7693C45.1265 16.4951 44.5425 17.0782 43.8218 17.0782H37.64C37.5406 17.0782 37.4474 17.1154 37.3791 17.1775L35.5152 18.7841C35.2294 19.0322 35.4034 19.4975 35.7761 19.4975H43.5112C43.5112 19.4975 43.5174 19.4975 43.5174 19.4913C43.5174 19.4851 43.5236 19.4851 43.5236 19.4851C43.623 19.4913 43.7162 19.4975 43.8156 19.4975C45.8659 19.4975 47.5309 17.8288 47.5309 15.7693C47.5309 13.8153 46.0336 12.2087 44.1201 12.0536C44.1201 12.0536 44.1138 12.0536 44.1138 12.0474C44.1138 12.0412 44.1138 12.0412 44.1076 12.0412H38.5906C37.8699 12.0412 37.2859 11.4519 37.2859 10.7323C37.2859 10.0065 37.8699 9.42341 38.5906 9.42341H44.76C44.8594 9.42341 44.9588 9.38619 45.0333 9.31796L46.7667 7.71132C47.0401 7.45699 46.8599 7.00415 46.4934 7.00415H38.6962C38.6651 7.00415 38.6278 7.00415 38.5968 7.00415C36.5465 7.00415 34.8815 8.67282 34.8815 10.7323C34.8815 12.7918 36.5465 14.4604 38.5968 14.4604C38.6278 14.4604 38.6589 14.4604 38.6962 14.4604Z" fill="white"/>
<path d="M68.5305 6.99876C68.3069 6.99876 68.1267 7.17865 68.1267 7.40817V19.0951C68.1267 19.3184 68.3069 19.5045 68.5305 19.5045H77.912C78.0239 19.5045 78.1295 19.4549 78.2102 19.3742L79.3845 18.115C79.6268 17.8544 79.4466 17.4264 79.0863 17.4264H70.8977C70.674 17.4264 70.4938 17.2465 70.4938 17.017V7.40197C70.4938 7.17865 70.3136 6.99255 70.09 6.99255H68.5305V6.99876Z" fill="white"/>
<path fill-rule="evenodd" clip-rule="evenodd" d="M53.5078 6.99878C53.5078 7.00498 53.5078 7.00498 53.5078 6.99878C52.3087 7.05461 51.3457 8.01611 51.2898 9.21334V17.0728C51.2898 17.1039 51.2898 17.1411 51.2898 17.1721C51.2898 18.4189 52.2714 19.4363 53.5078 19.4859H62.0195C63.2496 19.4301 64.2375 18.4127 64.2375 17.1721C64.2375 17.1411 64.2375 17.1039 64.2375 17.0728V9.21954C64.1878 8.02231 63.2248 7.05461 62.0257 7.00498H53.5078V6.99878ZM55.0983 9.21954C55.0921 9.21954 55.0921 9.21954 55.0983 9.21954C54.3465 9.25056 53.7439 9.85847 53.7128 10.6153V15.5592C53.7128 15.5779 53.7128 15.6027 53.7128 15.6213C53.7128 16.4029 54.3279 17.048 55.0983 17.079H60.4352C61.2056 17.048 61.8207 16.4029 61.8207 15.6213C61.8207 15.6027 61.8207 15.5779 61.8207 15.5592V10.6153C61.7896 9.85847 61.1869 9.25676 60.4352 9.21954H55.0983Z" fill="white"/>
<path fill-rule="evenodd" clip-rule="evenodd" d="M93.0222 19.0952C93.0222 19.3185 93.2024 19.5046 93.426 19.5046H95.0165C95.2402 19.5046 95.4204 19.3247 95.4204 19.0952V9.42435C95.4204 9.39333 95.4204 9.35612 95.4204 9.3251C95.4204 8.07825 94.4449 7.06092 93.2272 7.01129H85.0573C85.0262 7.01129 84.9889 7.01129 84.9578 7.01129C83.6904 7.01129 82.6653 8.04723 82.6653 9.3313C82.6653 9.36232 82.6653 9.39954 82.6653 9.43055V19.1014C82.6653 19.3247 82.8455 19.5108 83.0691 19.5108H84.6596C84.8833 19.5108 85.0635 19.3309 85.0635 19.1014V15.0755C85.0635 14.8522 85.2436 14.6661 85.4673 14.6661H92.637C92.8607 14.6661 93.0408 14.846 93.0408 15.0755V19.0952H93.0222ZM85.051 12.4391V10.4293C85.051 9.64767 85.6785 9.01494 86.4489 9.01494H91.6305C92.4009 9.01494 93.0284 9.64767 93.0284 10.4293V12.4391C93.0284 12.6624 92.8482 12.8485 92.6246 12.8485H85.4549C85.2312 12.8485 85.051 12.6686 85.051 12.4391Z" fill="white"/>
<path fill-rule="evenodd" clip-rule="evenodd" d="M126.603 19.5037C126.379 19.5037 126.199 19.3238 126.199 19.0943V15.0684C126.199 14.845 126.019 14.6589 125.795 14.6589H118.544C118.321 14.6589 118.141 14.8388 118.141 15.0684V19.0943C118.141 19.3176 117.96 19.5037 117.737 19.5037H116.134C115.91 19.5037 115.73 19.3238 115.73 19.0943V9.42341C115.73 9.3924 115.73 9.35518 115.73 9.32416C115.73 8.04629 116.768 7.00415 118.047 7.00415C118.078 7.00415 118.116 7.00415 118.147 7.00415H126.404C127.634 7.05998 128.622 8.07731 128.622 9.31796C128.622 9.34897 128.622 9.38619 128.622 9.41721V19.0881C128.622 19.3114 128.442 19.4975 128.218 19.4975H126.603V19.5037ZM118.141 10.4283V12.4382C118.141 12.6615 118.321 12.8476 118.544 12.8476H125.795C126.019 12.8476 126.199 12.6677 126.199 12.4382V10.4283C126.199 9.64673 125.565 9.014 124.788 9.014H119.551C118.768 9.014 118.141 9.64673 118.141 10.4283Z" fill="white"/>
<path d="M101.41 6.99878C101.528 6.99878 101.64 7.04841 101.714 7.14145L108.846 15.6337C109.089 15.919 109.555 15.7453 109.555 15.3669V7.40819C109.555 7.18488 109.735 6.99878 109.959 6.99878H111.549C111.773 6.99878 111.953 7.17867 111.953 7.40819V19.0951C111.953 19.3184 111.773 19.5045 111.549 19.5045H109.573C109.567 19.5045 109.561 19.4983 109.561 19.4921C109.561 19.4859 109.561 19.4859 109.555 19.4797L102.298 11.0495C102.056 10.7641 101.59 10.944 101.59 11.3162V19.1013C101.59 19.3246 101.41 19.5107 101.186 19.5107H99.583C99.3594 19.5107 99.1792 19.3308 99.1792 19.1013V7.40819C99.1792 7.18488 99.3594 6.99878 99.583 6.99878H101.41Z" fill="white"/>
<defs>
<linearGradient id="paint0_linear_2593_972" x1="0.273804" y1="13.2516" x2="24.0952" y2="2.23243" gradientUnits="userSpaceOnUse">
<stop offset="0.08" stop-color="#9945FF"/>
<stop offset="0.3" stop-color="#8752F3"/>
<stop offset="0.5" stop-color="#5497D5"/>
<stop offset="0.6" stop-color="#43B4CA"/>
<stop offset="0.72" stop-color="#28E0B9"/>
<stop offset="1" stop-color="#19FB9B"/>
</linearGradient>
</defs>
</svg>
