<svg width="112" height="72" viewBox="0 0 112 72" fill="none" xmlns="http://www.w3.org/2000/svg">
<mask id="mask0_5477_8406" style="mask-type:luminance" maskUnits="userSpaceOnUse" x="0" y="0" width="112" height="72">
<path d="M112 0H0V72H112V0Z" fill="white"/>
</mask>
<g mask="url(#mask0_5477_8406)">
<path d="M52.0955 7.5003L4.46415 35.0003C3.51158 35.5502 3.03329 36.2703 3.0293 36.9911V40.0131C3.03492 40.7327 3.51319 41.4512 4.46412 42.0003L52.0955 69.5003C54.0086 70.6048 57.1105 70.6048 59.0237 69.5003L106.655 42.0003C107.612 41.448 108.09 40.7241 108.09 40.0003V36.9911C108.086 36.2703 107.608 35.5502 106.655 35.0003L59.0237 7.5003C57.1105 6.39573 54.0087 6.39573 52.0955 7.5003Z" fill="#FF3D33"/>
<path d="M108.09 36.9911C108.086 36.2703 107.608 35.5502 106.655 35.0003L59.0238 7.5003C57.1106 6.39573 54.0088 6.39573 52.0956 7.5003L4.46417 35.0003C3.5116 35.5502 3.03331 36.2703 3.02932 36.9911M108.09 36.9911C108.094 37.718 107.616 38.4457 106.655 39.0003L59.0238 66.5003C57.1106 67.6048 54.0088 67.6048 52.0956 66.5003L4.46417 39.0003C3.50357 38.4457 3.02529 37.718 3.02932 36.9911M108.09 36.9911V40.0003C108.09 40.7241 107.612 41.448 106.655 42.0003L59.0238 69.5003C57.1106 70.6048 54.0087 70.6048 52.0956 69.5003L4.46414 42.0003C3.51321 41.4512 3.03494 40.7327 3.02932 40.0131V36.9911" stroke="white"/>
<path d="M16.8848 33.9905C16.8891 33.2699 17.3674 32.5501 18.3196 32.0003L52.0946 12.5003C54.0078 11.3957 57.1097 11.3957 59.0228 12.5003L92.7978 32.0003C93.7501 32.5501 94.2284 33.2699 94.2327 33.9905M16.8848 33.9905C16.8805 34.7176 17.3588 35.4455 18.3196 36.0003L52.0946 55.5003C54.0078 56.6048 57.1097 56.6048 59.0228 55.5003L92.7978 36.0003C93.7587 35.4455 94.237 34.7176 94.2327 33.9905M16.8848 33.9905V37.0003C16.8848 37.7241 17.3631 38.448 18.3197 39.0003L52.0947 58.5003C54.0078 59.6048 57.1097 59.6048 59.0229 58.5003L92.7979 39.0003C93.7544 38.448 94.2327 37.7241 94.2327 37.0003V33.9905" stroke="white"/>
<path d="M30.7422 30.9998C30.7422 30.2759 31.2205 29.5521 32.1771 28.9998L52.0956 17.4998C54.0088 16.3952 57.1107 16.3952 59.0238 17.4998L78.9424 28.9998C79.899 29.5521 80.3773 30.2759 80.3773 30.9998M30.7422 30.9998C30.7422 31.7237 31.2205 32.4475 32.1771 32.9998L52.0956 44.4998C54.0088 45.6044 57.1107 45.6044 59.0238 44.4998L78.9424 32.9998C79.899 32.4475 80.3773 31.7237 80.3773 30.9998M30.7422 30.9998V33.9998C30.7422 34.7237 31.2205 35.4475 32.1771 35.9998L52.0956 47.4998C54.0088 48.6044 57.1107 48.6044 59.0238 47.4998L78.9424 35.9998C79.899 35.4475 80.3773 34.7237 80.3773 33.9998V30.9998" stroke="white"/>
</g>
</svg>
