<svg width="112" height="72" viewBox="0 0 112 72" fill="none" xmlns="http://www.w3.org/2000/svg">
<mask id="mask0_5477_8477" style="mask-type:luminance" maskUnits="userSpaceOnUse" x="0" y="0" width="112" height="72">
<path d="M112 0H0V72H112V0Z" fill="white"/>
</mask>
<g mask="url(#mask0_5477_8477)">
<path d="M53.8275 7.5L2.73205 37C1.77547 37.5523 1.77547 38.4477 2.73205 39L53.8275 68.5C54.7841 69.0523 56.335 69.0523 57.2916 68.5L108.387 39C109.344 38.4477 109.344 37.5523 108.387 37L57.2916 7.5C56.335 6.94772 54.7841 6.94772 53.8275 7.5Z" stroke="white" stroke-opacity="0.3" stroke-dasharray="3 3"/>
<path d="M91.066 25.9997L77.2096 33.9997C76.7313 34.2759 76.4922 34.6378 76.4922 34.9998V38.028C76.5043 38.3804 76.7433 38.7307 77.2091 38.9997L91.0655 46.9997C92.0221 47.552 93.5731 47.552 94.5296 46.9997L108.386 38.9997C108.864 38.7236 109.103 38.3617 109.103 37.9998L109.104 34.9998C109.104 34.6378 108.865 34.2759 108.387 33.9997L94.5301 25.9997C93.5736 25.4474 92.0226 25.4474 91.066 25.9997Z" fill="#FF3D33" stroke="white"/>
<path d="M53.8274 47.4997L39.971 55.4997C39.4927 55.7759 39.2536 56.1378 39.2536 56.4998L39.252 59.4998C39.252 59.8617 39.4911 60.2236 39.9694 60.4997L53.8258 68.4997C54.7824 69.052 56.3333 69.052 57.2899 68.4997L71.1463 60.4997C71.6246 60.2236 71.8637 59.8617 71.8637 59.4998L71.8654 56.4998C71.8654 56.1378 71.6262 55.7759 71.1479 55.4997L57.2915 47.4997C56.3349 46.9474 54.784 46.9474 53.8274 47.4997Z" fill="#FF3D33"/>
<path d="M16.5883 25.9997L2.73193 33.9997C2.25362 34.2759 2.01447 34.6378 2.01449 34.9998L2.01367 37.9998C2.01371 38.3617 2.25285 38.7236 2.73111 38.9997L16.5875 46.9997C17.5441 47.552 19.095 47.552 20.0516 46.9997L33.908 38.9997C34.3863 38.7236 34.6254 38.3617 34.6255 37.9998L34.6263 34.9998C34.6263 34.6378 34.3871 34.2759 33.9088 33.9997L20.0524 25.9997C19.0959 25.4474 17.5449 25.4474 16.5883 25.9997Z" fill="#FF3D33"/>
<path d="M53.8278 4.50015L39.9713 12.5002C39.4931 12.7763 39.254 13.1381 39.2539 13.5V16.5567C39.2776 16.8996 39.516 17.2384 39.9694 17.5001L53.8258 25.5001C54.7824 26.0524 56.3333 26.0524 57.2899 25.5001L71.1463 17.5001C71.6247 17.2239 71.8638 16.8619 71.8637 16.5V13.4436C71.8401 13.1007 71.6016 12.7619 71.1483 12.5002L57.2919 4.50015C56.3353 3.94787 54.7843 3.94787 53.8278 4.50015Z" fill="#FF3D33"/>
<path d="M34.6263 34.9998C34.6263 34.6378 34.3871 34.2759 33.9088 33.9997L20.0524 25.9997C19.0959 25.4474 17.5449 25.4474 16.5883 25.9997L2.73193 33.9997C2.25362 34.2759 2.01447 34.6378 2.01449 34.9998M34.6263 34.9998C34.6263 35.3617 34.3871 35.7236 33.9088 35.9997L20.0524 43.9997C19.0959 44.552 17.5449 44.552 16.5883 43.9997L2.73193 35.9997C2.25365 35.7236 2.0145 35.3617 2.01449 34.9998M34.6263 34.9998L34.6255 37.9998C34.6254 38.3617 34.3863 38.7236 33.908 38.9997L20.0516 46.9997C19.095 47.552 17.5441 47.552 16.5875 46.9997L2.73111 38.9997C2.25285 38.7236 2.01371 38.3617 2.01367 37.9998L2.01449 34.9998" stroke="white"/>
<path d="M71.8654 56.4998C71.8654 56.1378 71.6262 55.7759 71.1479 55.4997L57.2915 47.4997C56.3349 46.9474 54.784 46.9474 53.8274 47.4997L39.971 55.4997C39.4927 55.7759 39.2536 56.1378 39.2536 56.4998M71.8654 56.4998C71.8654 56.8617 71.6262 57.2236 71.1479 57.4997L57.2915 65.4997C56.3349 66.052 54.784 66.052 53.8274 65.4997L39.971 57.4997C39.4927 57.2236 39.2536 56.8617 39.2536 56.4998M71.8654 56.4998L71.8637 59.4998C71.8637 59.8617 71.6246 60.2236 71.1463 60.4997L57.2899 68.4997C56.3333 69.052 54.7824 69.052 53.8258 68.4997L39.9694 60.4997C39.4911 60.2236 39.252 59.8617 39.252 59.4998L39.2536 56.4998" stroke="white"/>
<path d="M71.8637 13.4436C71.8401 13.1007 71.6016 12.7619 71.1483 12.5002L57.2919 4.50015C56.3353 3.94787 54.7843 3.94787 53.8278 4.50015L39.9713 12.5002C39.4931 12.7763 39.254 13.1381 39.2539 13.5M71.8637 13.4436C71.89 13.8241 71.6515 14.2096 71.1483 14.5002L57.2919 22.5002C56.3353 23.0525 54.7843 23.0525 53.8278 22.5002L39.9713 14.5002C39.493 14.224 39.2538 13.862 39.2539 13.5M71.8637 13.4436V16.5C71.8638 16.8619 71.6247 17.2239 71.1463 17.5001L57.2899 25.5001C56.3333 26.0524 54.7824 26.0524 53.8258 25.5001L39.9694 17.5001C39.516 17.2384 39.2776 16.8996 39.2539 16.5567V13.5" stroke="white"/>
<path d="M109.104 34.9998C109.104 34.6378 108.865 34.2759 108.387 33.9997L94.5301 25.9997C93.5735 25.4474 92.0226 25.4474 91.066 25.9997L77.2096 33.9997C76.7313 34.2759 76.4922 34.6378 76.4922 34.9998M109.104 34.9998C109.104 35.3617 108.865 35.7236 108.387 35.9997L94.5301 43.9997C93.5735 44.552 92.0226 44.552 91.066 43.9997L77.2096 35.9997C76.7313 35.7236 76.4922 35.3617 76.4922 34.9998M109.104 34.9998L109.103 37.9998C109.103 38.3617 108.864 38.7236 108.386 38.9997L94.5296 46.9997C93.5731 47.552 92.0221 47.552 91.0655 46.9997L77.2091 38.9997C76.7433 38.7307 76.5043 38.3804 76.4922 38.028V34.9998" stroke="white"/>
<path d="M19.187 32.5L51.2299 14M51.2299 14V18M51.2299 14H44.3017" stroke="white" stroke-linecap="round" stroke-linejoin="round"/>
<path d="M91.9322 37.5L59.8892 56M59.8892 56V52M59.8892 56H66.8174" stroke="white" stroke-linecap="round" stroke-linejoin="round"/>
<path d="M59.8892 14L91.9322 32.5M91.9322 32.5H85.0039M91.9322 32.5V28.5" stroke="white" stroke-linecap="round" stroke-linejoin="round"/>
<path d="M51.2299 56L19.187 37.5M19.187 37.5H26.1152M19.187 37.5V41.5" stroke="white" stroke-linecap="round" stroke-linejoin="round"/>
</g>
</svg>
