<svg width="112" height="72" viewBox="0 0 112 72" fill="none" xmlns="http://www.w3.org/2000/svg">
<mask id="mask0_5477_8585" style="mask-type:luminance" maskUnits="userSpaceOnUse" x="0" y="0" width="112" height="72">
<path d="M112 0H0V72H112V0Z" fill="white"/>
</mask>
<g mask="url(#mask0_5477_8585)">
<path d="M52.9631 5.00022L3.59961 33.5002C2.88216 33.9144 2.52344 34.4573 2.52345 35.0002L2.52344 38.0002C2.52344 38.5431 2.88215 39.086 3.59958 39.5002L52.963 68.0002C54.3979 68.8286 56.7243 68.8286 58.1592 68.0002L107.523 39.5002C108.24 39.086 108.599 38.5431 108.599 38.0002V34.9954C108.597 34.4541 108.238 33.9132 107.523 33.5002L58.1592 5.00022C56.7243 4.1718 54.3979 4.1718 52.9631 5.00022Z" fill="#FF3D33"/>
<path d="M108.599 34.9954C108.597 34.4541 108.238 33.9132 107.523 33.5002L58.1592 5.00022C56.7243 4.1718 54.3979 4.1718 52.9631 5.00022L3.59961 33.5002C2.88216 33.9144 2.52344 34.4573 2.52345 35.0002M108.599 34.9954C108.601 35.5399 108.242 36.0847 107.523 36.5002L58.1592 65.0002C56.7243 65.8286 54.3979 65.8286 52.9631 65.0002L3.59961 36.5002C2.88218 36.086 2.52346 35.5431 2.52345 35.0002M108.599 34.9954V38.0002C108.599 38.5431 108.24 39.086 107.523 39.5002L58.1592 68.0002C56.7243 68.8286 54.3979 68.8286 52.963 68.0002L3.59958 39.5002C2.88215 39.086 2.52344 38.5431 2.52344 38.0002L2.52345 35.0002" stroke="white"/>
<path d="M39.1051 13L3.59807 33.5C2.1632 34.3284 2.1632 35.6716 3.59807 36.5L39.1051 57C40.54 57.8284 42.8664 57.8284 44.3012 57L79.8083 36.5C81.2431 35.6716 81.2431 34.3284 79.8083 33.5L44.3012 13C42.8664 12.1716 40.54 12.1716 39.1051 13Z" stroke="white" stroke-dasharray="3 3"/>
<path d="M25.2487 21L3.59807 33.5C2.1632 34.3284 2.1632 35.6716 3.59807 36.5L25.2487 49C26.6836 49.8284 29.01 49.8284 30.4448 49L52.0955 36.5C53.5304 35.6716 53.5304 34.3284 52.0955 33.5L30.4448 21C29.01 20.1716 26.6836 20.1716 25.2487 21Z" stroke="white" stroke-dasharray="3 3"/>
<path d="M11.3923 29L3.59807 33.5C2.1632 34.3284 2.1632 35.6716 3.59807 36.5L11.3923 41C12.8272 41.8284 15.1536 41.8284 16.5884 41L24.3827 36.5C25.8176 35.6716 25.8176 34.3284 24.3827 33.5L16.5884 29C15.1536 28.1716 12.8272 28.1716 11.3923 29Z" stroke="white" stroke-dasharray="3 3"/>
</g>
</svg>
