<svg width="112" height="72" viewBox="0 0 112 72" fill="none" xmlns="http://www.w3.org/2000/svg">
<mask id="mask0_5477_8696" style="mask-type:luminance" maskUnits="userSpaceOnUse" x="0" y="0" width="112" height="72">
<path d="M112 0H0V72H112V0Z" fill="white"/>
</mask>
<g mask="url(#mask0_5477_8696)">
<path d="M53.0252 10.3145L5.39379 37.8145C3.48062 38.919 3.48062 40.7099 5.39379 41.8145L53.0252 69.3145C54.9383 70.419 58.0402 70.419 59.9534 69.3145L107.585 41.8145C109.498 40.7099 109.498 38.919 107.585 37.8145L59.9534 10.3145C58.0402 9.20988 54.9383 9.20988 53.0252 10.3145Z" stroke="white" stroke-dasharray="3 3"/>
<path d="M6.82099 32.0751C4.71943 30.8762 4.92027 28.8842 7.24856 27.8342L42.7861 11.8074C44.6911 10.9483 47.3967 11.0198 49.1577 11.9759L100.957 40.0967C102.762 41.0769 103.015 42.6812 101.546 43.8337L73.7041 65.6792C71.9335 67.0685 68.4401 67.2271 66.315 66.0148L6.82099 32.0751Z" fill="white" fill-opacity="0.3"/>
<path d="M74.1457 62.669L101.618 43.5544C102.344 43.0495 102.721 42.4341 102.745 41.8141V38.682C102.722 38.0963 102.384 37.5133 101.729 37.0224L56.8938 3.41184C55.3193 2.23159 52.4292 1.95871 50.2856 2.78793L13.3287 17.084C11.9732 17.6084 11.2255 18.449 11.1608 19.3141V22.3141C11.1111 22.98 11.4661 23.6603 12.2601 24.2221L66.5802 62.6512C68.5301 64.0307 72.1763 64.0393 74.1457 62.669Z" fill="#FF3D33"/>
<path d="M102.745 38.682C102.722 38.0963 102.384 37.5133 101.729 37.0224L56.8938 3.41184C55.3193 2.23159 52.4292 1.95871 50.2856 2.78793L13.3287 17.084C11.9732 17.6084 11.2255 18.449 11.1608 19.3141M102.745 38.682C102.772 39.3461 102.395 40.0137 101.618 40.5544L74.1457 59.669C72.1763 61.0393 68.5301 61.0307 66.5802 59.6512L12.2601 21.2221C11.4661 20.6603 11.1111 19.98 11.1608 19.3141M102.745 38.682V41.8141C102.721 42.4341 102.344 43.0495 101.618 43.5544L74.1457 62.669C72.1763 64.0393 68.5301 64.0307 66.5802 62.6512L12.2601 24.2221C11.4661 23.6603 11.1111 22.98 11.1608 22.3141V19.3141" stroke="white"/>
</g>
</svg>
