<svg width="112" height="72" viewBox="0 0 112 72" fill="none" xmlns="http://www.w3.org/2000/svg">
<mask id="mask0_5477_8719" style="mask-type:luminance" maskUnits="userSpaceOnUse" x="0" y="0" width="112" height="72">
<path d="M112 0H0V72H112V0Z" fill="white"/>
</mask>
<g mask="url(#mask0_5477_8719)">
<path d="M51.23 6.00038L5.3306 32.5004C4.14419 33.1854 3.54636 34.0815 3.53711 34.9792V38.0004C3.5371 38.9052 4.13497 39.8101 5.33071 40.5004L51.2301 67.0004C53.6215 68.3811 57.4988 68.3811 59.8903 67.0004L105.79 40.5004C106.985 39.8101 107.583 38.9052 107.583 38.0004V35.0004C107.583 34.0956 106.985 33.1908 105.79 32.5004L59.8902 6.00038C57.4987 4.61967 53.6214 4.61967 51.23 6.00038Z" fill="#FF3D33"/>
<path d="M107.583 35.0004C107.583 34.0956 106.985 33.1908 105.79 32.5004L59.8903 6.00038C57.4988 4.61967 53.6215 4.61967 51.2301 6.00038L5.33071 32.5004C4.1443 33.1854 3.54647 34.0815 3.53722 34.9792M107.583 35.0004C107.583 35.9052 106.985 36.8101 105.79 37.5004L59.8903 64.0004C57.4988 65.3811 53.6215 65.3811 51.2301 64.0004L5.33071 37.5004C4.12565 36.8047 3.52782 35.8911 3.53722 34.9792M107.583 35.0004V38.0004C107.583 38.9052 106.985 39.8101 105.79 40.5004L59.8904 67.0004C57.4989 68.3811 53.6216 68.3811 51.2302 67.0004L5.33082 40.5004C4.13508 39.8101 3.53721 38.9052 3.53722 38.0004V34.9792" stroke="white"/>
<path d="M54.6946 62.0001C55.1729 62.2762 55.9484 62.2762 56.4267 62.0001L100.594 36.5001L56.4267 11.0001C55.9484 10.724 55.1729 10.7239 54.6946 11.0001L10.5273 36.5001L54.6946 62.0001Z" fill="url(#paint0_linear_5477_8719)"/>
<path d="M100.593 36.5001L56.4257 11.0001C55.9474 10.724 55.1719 10.7239 54.6936 11.0001L10.5263 36.5001M100.593 36.5001L102.325 35.5001C102.803 35.224 102.803 34.7762 102.325 34.5001L56.4257 8.00007C55.9474 7.72393 55.1719 7.72393 54.6936 8.00007L8.79427 34.5001C8.31597 34.7762 8.31597 35.2239 8.79427 35.5001L10.5263 36.5001M100.593 36.5001L56.4257 62.0001C55.9474 62.2762 55.1719 62.2762 54.6936 62.0001L10.5263 36.5001" stroke="white"/>
<path d="M79.6783 25.5002L70.152 31.0002C69.1954 31.5525 68.4199 32.8956 68.4199 34.0002V45.0002C68.4199 45.5163 68.5892 45.889 68.8672 46.0833L70.6723 47.1289C70.9847 47.3017 71.4123 47.2725 71.884 47.0002L74.9151 45.2502L76.6472 46.2502L78.3792 43.2502L81.4103 41.5002C82.3669 40.9479 83.1424 39.6048 83.1424 38.5002V27.5002C83.1424 26.932 82.9371 26.5376 82.6076 26.3637L80.8672 25.3594C80.557 25.2002 80.1386 25.2344 79.6783 25.5002Z" fill="#FF3D33"/>
<path d="M70.6723 47.1289C70.3512 46.9512 70.152 46.5601 70.152 46.0002V35.0002C70.152 33.8956 70.9274 32.5525 71.884 32.0002L81.4103 26.5002C81.8748 26.232 82.2966 26.1996 82.6076 26.3637M70.6723 47.1289C70.9847 47.3017 71.4123 47.2725 71.884 47.0002L74.9151 45.2502L76.6472 46.2502L78.3792 43.2502L81.4103 41.5002C82.3669 40.9479 83.1424 39.6048 83.1424 38.5002V27.5002C83.1424 26.932 82.9371 26.5376 82.6076 26.3637M70.6723 47.1289L68.8672 46.0833C68.5892 45.889 68.4199 45.5163 68.4199 45.0002V34.0002C68.4199 32.8956 69.1954 31.5525 70.152 31.0002L79.6783 25.5002C80.1386 25.2344 80.557 25.2002 80.8672 25.3594L82.6076 26.3637" stroke="white"/>
<path d="M71.8848 34L81.411 28.5V39.5L71.8848 45V34Z" stroke="white"/>
<path d="M39.8404 2.50023L30.3141 8.00023C29.3575 8.55251 28.582 9.89566 28.582 11.0002V22.0002C28.582 22.5163 28.7513 22.889 29.0293 23.0833L30.8344 24.1289C31.1468 24.3017 31.5744 24.2725 32.0461 24.0002L35.0772 22.2502L36.8093 23.2502L38.5413 20.2502L41.5724 18.5002C42.529 17.9479 43.3045 16.6048 43.3045 15.5002V4.50022C43.3045 3.932 43.0992 3.53761 42.7697 3.36376L41.0293 2.3594C40.7191 2.20026 40.3007 2.23445 39.8404 2.50023Z" fill="#FF3D33"/>
<path d="M30.8344 24.1289C30.5133 23.9512 30.3141 23.5601 30.3141 23.0002V12.0002C30.3141 10.8956 31.0896 9.55251 32.0461 9.00022L41.5724 3.50023C42.0369 3.23205 42.4587 3.19966 42.7697 3.36376M30.8344 24.1289C31.1468 24.3017 31.5744 24.2725 32.0461 24.0002L35.0772 22.2502L36.8093 23.2502L38.5413 20.2502L41.5724 18.5002C42.529 17.9479 43.3045 16.6048 43.3045 15.5002V4.50022C43.3045 3.932 43.0992 3.53761 42.7697 3.36376M30.8344 24.1289L29.0293 23.0833C28.7513 22.889 28.582 22.5163 28.582 22.0002V11.0002C28.582 9.89566 29.3575 8.55251 30.3141 8.00023L39.8404 2.50023C40.3007 2.23445 40.7191 2.20026 41.0293 2.3594L42.7697 3.36376" stroke="white"/>
<path d="M32.0469 11L41.5732 5.5V16.5L32.0469 22V11Z" fill="white" fill-opacity="0.75" stroke="white"/>
</g>
<defs>
<linearGradient id="paint0_linear_5477_8719" x1="10.501" y1="36.0002" x2="55.5607" y2="62.2072" gradientUnits="userSpaceOnUse">
<stop stop-color="white" stop-opacity="0.75"/>
<stop offset="1" stop-color="#FF3D33"/>
</linearGradient>
</defs>
</svg>
