<svg width="112" height="72" viewBox="0 0 112 72" fill="none" xmlns="http://www.w3.org/2000/svg">
<path d="M62.3531 62.3285L94.396 43.8285C95.5919 43.1382 96.1896 42.2333 96.1896 41.3285L96.1897 38.3285C96.1897 37.4237 95.5919 36.5189 94.3961 35.8285L48.4967 9.3285C46.1054 7.94779 42.228 7.94779 39.8366 9.3285L7.7936 27.8285C6.59787 28.5189 6 29.4237 6 30.3285V33.3427C6.0062 34.2428 6.60405 35.1418 7.79355 35.8285L53.6929 62.3285C56.0844 63.7092 59.9617 63.7092 62.3531 62.3285Z" fill="#FF3D33"/>
<path d="M7.7936 32.8285C6.59786 32.1381 5.99999 31.2333 6 30.3285C6.00001 29.4237 6.59787 28.5189 7.7936 27.8285L39.8365 9.3285C42.228 7.94779 46.1053 7.94779 48.4968 9.3285L94.3961 35.8285C95.5919 36.5189 96.1897 37.4237 96.1897 38.3285C96.1897 39.2333 95.5919 40.1381 94.3961 40.8285L62.3532 59.3285C59.9617 60.7092 56.0844 60.7092 53.6929 59.3285L7.7936 32.8285Z" fill="#FF3D33"/>
<path d="M6 30.3285C6.00001 29.4237 6.59787 28.5189 7.7936 27.8285L39.8365 9.3285C42.228 7.94779 46.1053 7.94779 48.4968 9.3285L94.3961 35.8285C95.5919 36.5189 96.1897 37.4237 96.1897 38.3285M6 30.3285C5.99999 31.2333 6.59786 32.1381 7.7936 32.8285L53.6929 59.3285C56.0844 60.7092 59.9617 60.7092 62.3532 59.3285L94.3961 40.8285C95.5919 40.1381 96.1897 39.2333 96.1897 38.3285M6 30.3285V33.3427C6.0062 34.2428 6.60405 35.1418 7.79355 35.8285L53.6929 62.3285C56.0844 63.7092 59.9617 63.7092 62.3531 62.3285L94.3961 43.8285C95.5918 43.1382 96.1897 42.2333 96.1897 41.3285V38.3285" stroke="white"/>
<path d="M10.3922 31.3283C9.43566 30.776 9.43566 29.8806 10.3922 29.3283L42.4351 10.8283C43.3917 10.276 44.9427 10.276 45.8992 10.8283L91.7986 37.3283C92.7552 37.8806 92.7552 38.776 91.7986 39.3283L59.7557 57.8283C58.7991 58.3806 57.2481 58.3806 56.2916 57.8283L10.3922 31.3283Z" fill="#FF3D33" stroke="white" stroke-opacity="0.3"/>
<path d="M91.1283 42.8285L104.119 35.3285C105.075 34.7762 105.554 34.0523 105.554 33.3284V30.3284C105.554 29.6046 105.075 28.8807 104.119 28.3284L70.3437 8.82843C68.4306 7.72386 65.3287 7.72386 63.4155 8.82843L50.4252 16.3284C49.4686 16.8807 48.9903 17.6046 48.9903 18.3284L48.9902 21.3284C48.9902 22.0523 49.4685 22.7762 50.4251 23.3285L84.2001 42.8285C86.1133 43.933 89.2151 43.933 91.1283 42.8285Z" fill="#FF3D33"/>
<path d="M105.554 30.3284C105.554 29.6046 105.075 28.8807 104.119 28.3284L70.3437 8.82843C68.4306 7.72386 65.3287 7.72386 63.4155 8.82843L50.4252 16.3284C49.4686 16.8807 48.9903 17.6046 48.9903 18.3284M105.554 30.3284C105.554 31.0523 105.075 31.7761 104.119 32.3284L91.1284 39.8284C89.2152 40.933 86.1133 40.933 84.2001 39.8284L50.4252 20.3284C49.4686 19.7761 48.9903 19.0523 48.9903 18.3284M105.554 30.3284V33.3284C105.554 34.0523 105.075 34.7762 104.119 35.3285L91.1283 42.8285C89.2151 43.933 86.1133 43.933 84.2001 42.8285L50.4251 23.3285C49.4685 22.7762 48.9902 22.0523 48.9902 21.3284L48.9903 18.3284" stroke="white"/>
<path d="M60.8184 12.8281L57.3543 14.8281C56.876 15.1043 56.876 15.552 57.3543 15.8281C57.8326 16.1043 58.6081 16.1043 59.0864 15.8281L62.5505 13.8281C63.0287 13.552 63.0287 13.1043 62.5505 12.8281C62.0722 12.552 61.2967 12.552 60.8184 12.8281Z" fill="white"/>
</svg>
