<svg width="120" height="74" viewBox="0 0 120 74" fill="none" xmlns="http://www.w3.org/2000/svg">
<path d="M56.0948 6.99987L8.46381 34.4999C7.50681 35.0529 7.02881 35.7759 7.02881 36.4999V39.4999C7.02881 40.2239 7.50681 40.9479 8.46381 41.4999L56.0948 68.9999C58.0078 70.1049 61.1098 70.1049 63.0228 68.9999L110.655 41.4999C111.611 40.9479 112.09 40.2239 112.09 39.4999V36.4999C112.089 35.7759 111.611 35.0529 110.655 34.4999L63.0228 6.99987C61.1098 5.89587 58.0078 5.89587 56.0948 6.99987Z" fill="#FF3D33"/>
<g opacity="0.1">
<path d="M60.425 53.5C59.947 53.224 59.947 52.776 60.425 52.5L87.272 37C87.75 36.724 88.526 36.724 89.004 37L90.736 38C91.214 38.276 91.214 38.724 90.736 39L63.89 54.5C63.412 54.776 62.637 54.776 62.158 54.5L60.425 53.5ZM54.363 50C53.407 49.448 53.407 48.552 54.363 48L57.827 46C58.784 45.448 60.335 45.448 61.291 46C62.248 46.552 62.248 47.448 61.291 48L57.827 50C56.871 50.552 55.32 50.552 54.363 50Z" fill="white" stroke="white"/>
<path d="M63.8901 44.5L76.0141 37.5" stroke="white" stroke-linecap="round"/>
<path d="M46.57 45.5C46.09 45.224 46.09 44.776 46.57 44.5L73.415 29C73.893 28.724 74.669 28.724 75.147 29L76.879 30C77.357 30.276 77.357 30.724 76.879 31L50.033 46.5C49.555 46.776 48.779 46.776 48.301 46.5L46.57 45.5Z" fill="white" stroke="white"/>
<path d="M43.105 43.5L53.497 37.5" stroke="white" stroke-linecap="round"/>
<path d="M37.0431 40C36.5651 39.724 36.5651 39.276 37.0431 39L63.8901 23.5C64.3681 23.224 65.1431 23.224 65.6221 23.5L67.3541 24.5C67.8321 24.776 67.8321 25.224 67.3541 25.5L40.5071 41C40.0291 41.276 39.2531 41.276 38.7751 41L37.0431 40Z" fill="white" stroke="white"/>
<path d="M33.5791 38L43.9711 32" stroke="white" stroke-linecap="round"/>
</g>
<path d="M112.09 36.4999C112.089 35.7759 111.611 35.0529 110.655 34.4999L63.0228 6.99987C61.1098 5.89587 58.0078 5.89587 56.0948 6.99987L8.46381 34.4999C7.50681 35.0529 7.02881 35.7759 7.02881 36.4999M112.09 36.4999C112.09 37.2239 111.611 37.9479 110.655 38.4999L63.0228 65.9999C61.1098 67.1049 58.0078 67.1049 56.0948 65.9999L8.46381 38.4999C7.50681 37.9479 7.02881 37.2239 7.02881 36.4999M112.09 36.4999V39.4999C112.09 40.2239 111.611 40.9479 110.655 41.4999L63.0228 68.9999C61.1098 70.1049 58.0078 70.1049 56.0948 68.9999L8.46381 41.4999C7.50681 40.9479 7.02881 40.2239 7.02881 39.4999V36.4999" stroke="white" stroke-opacity="0.4"/>
<path d="M17.9898 41C17.5118 40.724 17.5118 40.276 17.9898 40L65.6218 12.5C66.0998 12.224 66.8758 12.224 67.3538 12.5L108.057 36C108.535 36.276 108.535 36.724 108.057 37L60.4258 64.5C59.9468 64.776 59.1718 64.776 58.6938 64.5L17.9898 41Z" stroke="white" stroke-opacity="0.4"/>
<path opacity="0.1" d="M11.0621 37C10.5841 36.724 10.5841 36.276 11.0621 36L58.6941 8.49997C59.1721 8.22397 59.9471 8.22397 60.4261 8.49997L63.0241 9.99997C63.5021 10.276 63.5021 10.724 63.0241 11L15.3921 38.5C14.9141 38.776 14.1391 38.776 13.6601 38.5L11.0621 37Z" fill="white" stroke="white"/>
<path d="M60.425 48.5C59.947 48.224 59.947 47.776 60.425 47.5L87.272 32C87.75 31.724 88.526 31.724 89.004 32L90.736 33C91.214 33.276 91.214 33.724 90.736 34L63.89 49.5C63.412 49.776 62.637 49.776 62.158 49.5L60.425 48.5ZM54.363 45C53.407 44.448 53.407 43.552 54.363 43L57.827 41C58.784 40.448 60.335 40.448 61.291 41C62.248 41.552 62.248 42.448 61.291 43L57.827 45C56.871 45.552 55.32 45.552 54.363 45Z" fill="white" fill-opacity="0.3" stroke="white"/>
<path d="M61.2914 43C62.248 42.4477 62.248 41.5523 61.2914 41C60.3348 40.4477 58.7839 40.4477 57.8273 41C56.8707 41.5523 56.8707 42.4477 57.8273 43C58.7839 43.5523 60.3348 43.5523 61.2914 43Z" fill="#FF3D33" stroke="white"/>
<path d="M63.8901 39.5L76.0141 32.5" stroke="white" stroke-linecap="round"/>
<path d="M46.57 40.5C46.09 40.224 46.09 39.776 46.57 39.5L73.415 24C73.893 23.724 74.669 23.724 75.147 24L76.879 25C77.357 25.276 77.357 25.724 76.879 26L50.033 41.5C49.555 41.776 48.779 41.776 48.301 41.5L46.57 40.5Z" fill="#FF3D33" stroke="white"/>
<path d="M43.105 38.5L53.497 32.5" stroke="white" stroke-linecap="round"/>
<path d="M37.0431 35C36.5651 34.724 36.5651 34.276 37.0431 34L63.8901 18.5C64.3681 18.224 65.1431 18.224 65.6221 18.5L67.3541 19.5C67.8321 19.776 67.8321 20.224 67.3541 20.5L40.5071 36C40.0291 36.276 39.2531 36.276 38.7751 36L37.0431 35Z" fill="#FF3D33" stroke="white"/>
<path d="M33.5791 33L43.9711 27" stroke="white" stroke-linecap="round"/>
<path d="M11.0621 32C10.5841 31.724 10.5841 31.276 11.0621 31L58.6941 3.49997C59.1721 3.22397 59.9471 3.22397 60.4261 3.49997L63.0241 4.99997C63.5021 5.27597 63.5021 5.72397 63.0241 5.99997L15.3921 33.5C14.9141 33.776 14.1391 33.776 13.6601 33.5L11.0621 32Z" fill="#FF3D33" stroke="white"/>
</svg>
