<svg width="120" height="74" viewBox="0 0 120 74" fill="none" xmlns="http://www.w3.org/2000/svg">
<path d="M56.066 6.99987L8.435 34.4999C7.478 35.0529 7 35.7759 7 36.4999V39.4999C7 40.2239 7.478 40.9479 8.435 41.4999L56.066 68.9999C57.979 70.1049 61.081 70.1049 62.995 68.9999L110.626 41.4999C111.583 40.9479 112.061 40.2239 112.061 39.4999V36.4999C112.061 35.7759 111.582 35.0529 110.626 34.4999L62.995 6.99987C61.081 5.89587 57.98 5.89587 56.066 6.99987Z" fill="#FF3D33"/>
<path d="M112.09 36.496C112.089 35.773 111.611 35.049 110.655 34.496L63.0233 6.99597C61.1103 5.89197 58.0083 5.89197 56.0953 6.99597L8.4643 34.496C7.5073 35.049 7.0293 35.773 7.0293 36.496M112.09 36.496C112.09 37.22 111.611 37.944 110.655 38.496L63.0233 65.996C61.1103 67.101 58.0083 67.101 56.0953 65.996L8.4643 38.496C7.5073 37.944 7.0293 37.22 7.0293 36.496M112.09 36.496V39.496C112.09 40.22 111.611 40.944 110.655 41.496L63.0233 68.996C61.1103 70.101 58.0083 70.101 56.0953 68.996L8.4643 41.496C7.5073 40.944 7.0293 40.22 7.0293 39.496V36.496" stroke="white"/>
<path d="M11.0616 36.9961C10.5836 36.7201 10.5836 36.2721 11.0616 35.9961L58.6936 8.49606C59.1716 8.22006 59.9466 8.22006 60.4256 8.49606L90.7356 25.9961C91.2146 26.2731 91.2146 26.7201 90.7356 26.9961L43.1056 54.4961C42.6266 54.7721 41.8506 54.7721 41.3726 54.4961L11.0616 36.9961ZM45.7026 56.9961C45.2246 56.7201 45.2246 56.2721 45.7026 55.9961L93.3346 28.4961C93.8126 28.2201 94.5886 28.2201 95.0666 28.4961L108.057 35.9961C108.536 36.2721 108.536 36.7201 108.057 36.9961L60.4256 64.4961C59.9476 64.7721 59.1716 64.7721 58.6936 64.4961L45.7026 56.9961Z" stroke="white" stroke-opacity="0.3"/>
<path d="M20.1549 37.2461C20.8724 36.8319 20.8724 36.1603 20.1549 35.7461C19.4375 35.3319 18.2743 35.3319 17.5569 35.7461C16.8394 36.1603 16.8394 36.8319 17.5569 37.2461C18.2743 37.6603 19.4375 37.6603 20.1549 37.2461Z" fill="white"/>
<path d="M22.3203 34.4961L25.7843 32.4961M56.9613 14.4961L60.4263 12.4961M49.1683 18.9961L53.4983 16.4961M42.2403 22.9961L45.7033 20.9961" stroke="white" stroke-linecap="round"/>
<path d="M41.373 39.4961L64.756 25.9961" stroke="white" stroke-opacity="0.3" stroke-linecap="round"/>
<path d="M53.498 56.4961L60.426 52.4961M69.086 47.4961L76.014 43.4961M84.674 38.4961L91.603 34.4961" stroke="white" stroke-linecap="round"/>
<path d="M56.0963 57.9961L65.6223 52.4961M71.6843 48.9961L81.2103 43.4961M87.2733 39.9961L96.7993 34.4961M58.6933 59.4961L67.3533 54.4961M74.2823 50.4961L82.9423 45.4961M89.8703 41.4961L98.5303 36.4961M46.5703 39.4961L64.7563 28.9961" stroke="white" stroke-opacity="0.3" stroke-linecap="round"/>
<path d="M57.3949 21.7461L34.0121 35.2461C33.773 35.3842 33.773 35.608 34.0121 35.7461L34.8781 36.2461C35.1173 36.3842 35.505 36.3842 35.7442 36.2461L59.127 22.7461C59.3661 22.608 59.3661 22.3842 59.127 22.2461L58.261 21.7461C58.0218 21.608 57.6341 21.608 57.3949 21.7461Z" fill="white"/>
<path d="M62.5905 22.7461L35.7436 38.2461C35.5044 38.3842 35.5044 38.608 35.7436 38.7461L36.6096 39.2461C36.8487 39.3842 37.2365 39.3842 37.4756 39.2461L64.3226 23.7461C64.5617 23.608 64.5617 23.3842 64.3226 23.2461L63.4565 22.7461C63.2174 22.608 62.8296 22.608 62.5905 22.7461Z" fill="white"/>
<path d="M55.662 36.7461L49.5998 40.2461C48.8824 40.6603 48.8824 41.3319 49.5998 41.7461C50.3173 42.1603 51.4805 42.1603 52.1979 41.7461L58.2601 38.2461C58.9776 37.8319 58.9776 37.1603 58.2601 36.7461C57.5427 36.3319 56.3795 36.3319 55.662 36.7461Z" fill="white"/>
<path d="M66.0546 30.7461L59.9924 34.2461C59.275 34.6603 59.275 35.3319 59.9924 35.7461C60.7098 36.1603 61.8731 36.1603 62.5905 35.7461L68.6527 32.2461C69.3701 31.8319 69.3701 31.1603 68.6527 30.7461C67.9353 30.3319 66.7721 30.3319 66.0546 30.7461Z" fill="white" fill-opacity="0.3"/>
</svg>
