<svg width="120" height="74" viewBox="0 0 120 74" fill="none" xmlns="http://www.w3.org/2000/svg">
<mask id="mask0_5479_14258" style="mask-type:luminance" maskUnits="userSpaceOnUse" x="4" y="1" width="112" height="72">
<path d="M116 1H4V73H116V1Z" fill="white"/>
</mask>
<g mask="url(#mask0_5479_14258)">
<path d="M65.0051 61.7785L112.637 34.2785C113.114 34.0029 113.353 33.6419 113.354 33.2807V31.2772C113.353 30.9157 113.114 30.5543 112.637 30.2785L100.512 23.2785C99.5556 22.7262 98.0046 22.7262 97.0481 23.2785L49.4167 50.7785C48.9515 51.0471 48.7125 51.3968 48.6998 51.7488V53.7488C48.6863 54.1206 48.9253 54.4948 49.4167 54.7785L61.541 61.7785C62.4976 62.3308 64.0485 62.3308 65.0051 61.7785Z" fill="#FF3D33"/>
<path d="M113.352 31.2781C113.351 30.9166 113.112 30.5553 112.635 30.2795L100.51 23.2795C99.5536 22.7272 98.0027 22.7272 97.0461 23.2795L49.4147 50.7795C48.9495 51.048 48.7105 51.3978 48.6978 51.7497M113.352 31.2781C113.353 31.6405 113.113 32.003 112.635 32.2795L65.0032 59.7795C64.0466 60.3317 62.4956 60.3317 61.5391 59.7795L49.4147 52.7795C48.9233 52.4958 48.6844 52.1215 48.6978 51.7497M113.352 31.2781V33.2816C113.351 33.6428 113.112 34.0039 112.635 34.2795L65.0032 61.7795C64.0466 62.3317 62.4956 62.3317 61.5391 61.7795L49.4147 54.7795C48.9233 54.4958 48.6844 54.1215 48.6978 53.7497V51.7497" stroke="white"/>
<path d="M96.6148 23.5294C96.3756 23.3913 95.9879 23.3913 95.7487 23.5294C95.5096 23.6675 95.5096 23.8913 95.7487 24.0294L96.6148 23.5294ZM95.7487 24.0294L111.337 33.0294L112.203 32.5294L96.6148 23.5294L95.7487 24.0294Z" fill="white" fill-opacity="0.3"/>
<path d="M90.5523 27.0294C90.3131 26.8913 89.9254 26.8913 89.6862 27.0294C89.4471 27.1675 89.4471 27.3913 89.6862 27.5294L90.5523 27.0294ZM89.6862 27.5294L105.275 36.5294L106.141 36.0294L90.5523 27.0294L89.6862 27.5294Z" fill="white" fill-opacity="0.3"/>
<path d="M87.9546 28.5294C87.7155 28.3913 87.3277 28.3913 87.0886 28.5294C86.8494 28.6675 86.8494 28.8913 87.0886 29.0294L87.9546 28.5294ZM87.0886 29.0294L102.677 38.0294L103.543 37.5294L87.9546 28.5294L87.0886 29.0294Z" fill="white" fill-opacity="0.3"/>
<path d="M79.2943 33.5294C79.0552 33.3913 78.6675 33.3913 78.4283 33.5294C78.1892 33.6675 78.1892 33.8913 78.4283 34.0294L79.2943 33.5294ZM78.4283 34.0294L94.0168 43.0294L94.8828 42.5294L79.2943 33.5294L78.4283 34.0294Z" fill="white" fill-opacity="0.3"/>
<path d="M70.6322 38.5294C70.3931 38.3913 70.0054 38.3913 69.7662 38.5294C69.5271 38.6675 69.5271 38.8913 69.7662 39.0294L70.6322 38.5294ZM69.7662 39.0294L85.3547 48.0294L86.2207 47.5294L70.6322 38.5294L69.7662 39.0294Z" fill="white" fill-opacity="0.3"/>
<path d="M64.5718 42.0294C64.3326 41.8913 63.9449 41.8913 63.7058 42.0294C63.4666 42.1675 63.4666 42.3913 63.7058 42.5294L64.5718 42.0294ZM63.7058 42.5294L79.2942 51.5294L80.1602 51.0294L64.5718 42.0294L63.7058 42.5294Z" fill="white" fill-opacity="0.3"/>
<path d="M61.9722 43.5294C61.733 43.3913 61.3453 43.3913 61.1061 43.5294C60.867 43.6675 60.867 43.8913 61.1061 44.0294L61.9722 43.5294ZM61.1061 44.0294L76.6946 53.0294L77.5606 52.5294L61.9722 43.5294L61.1061 44.0294Z" fill="white" fill-opacity="0.3"/>
<path d="M55.9115 47.0294C55.6724 46.8913 55.2846 46.8913 55.0455 47.0294C54.8064 47.1675 54.8064 47.3913 55.0455 47.5294L55.9115 47.0294ZM55.0455 47.5294L70.634 56.5294L71.5 56.0294L55.9115 47.0294L55.0455 47.5294Z" fill="white" fill-opacity="0.3"/>
<path d="M81.8921 32.0294C81.653 31.8913 81.2652 31.8913 81.0261 32.0294C80.7869 32.1675 80.7869 32.3913 81.0261 32.5294L81.8921 32.0294ZM81.0261 32.5294L96.6145 41.5294L97.4806 41.0294L81.8921 32.0294L81.0261 32.5294Z" fill="white" fill-opacity="0.3"/>
<path d="M73.2318 37.0294C72.9927 36.8913 72.605 36.8913 72.3658 37.0294C72.1267 37.1675 72.1267 37.3913 72.3658 37.5294L73.2318 37.0294ZM72.3658 37.5294L87.9543 46.5294L88.8203 46.0294L73.2318 37.0294L72.3658 37.5294Z" fill="white" fill-opacity="0.3"/>
<path d="M67.806 58.8109L85.2403 21.2452C85.3094 21.0963 85.3347 20.9466 85.3207 20.8006V18.8007C85.2637 18.207 84.5572 17.6754 83.5083 17.5131L66.9461 14.9509C65.6394 14.7488 64.2962 15.1965 63.9461 15.9509L46.5118 53.5166C46.4366 53.6788 46.4133 53.8419 46.4361 54.0001V56.0001C46.5195 56.5779 47.218 57.09 48.2439 57.2487L64.806 59.8109C66.1128 60.013 67.4559 59.5653 67.806 58.8109Z" fill="#FF3D33"/>
<path d="M46.5118 55.5166C46.4366 55.6788 46.4133 55.8419 46.4361 56.0001M46.4361 56.0001C46.5195 56.5779 47.218 57.09 48.2439 57.2487L64.806 59.8109C66.1128 60.013 67.4559 59.5653 67.806 58.8109L85.2403 21.2452C85.3094 21.0963 85.3347 20.9466 85.3207 20.8006V18.8007M46.4361 56.0001V54.0001M85.3207 18.8007C85.2637 18.207 84.5572 17.6754 83.5083 17.5131L66.9461 14.9509C65.6394 14.7488 64.2962 15.1965 63.9461 15.9509L46.5118 53.5166C46.4366 53.6788 46.4133 53.8419 46.4361 54.0001M85.3207 18.8007C85.3347 18.9466 85.3094 19.0963 85.2403 19.2452L67.806 56.8109C67.4559 57.5653 66.1128 58.013 64.806 57.8109L48.2439 55.2487C47.218 55.09 46.5195 54.5779 46.4361 54.0001" stroke="white"/>
<path d="M63.627 16.6328L84.9212 19.927" stroke="white" stroke-opacity="0.3"/>
<path d="M61.4082 21.4141L82.7024 24.7083" stroke="white" stroke-opacity="0.3"/>
<path d="M60.457 23.4629L81.7513 26.7571" stroke="white" stroke-opacity="0.3"/>
<path d="M57.2871 30.293L78.5813 33.5872" stroke="white" stroke-opacity="0.3"/>
<path d="M54.1172 37.123L75.4114 40.4172" stroke="white" stroke-opacity="0.3"/>
<path d="M51.8984 41.9043L73.1927 45.1985" stroke="white" stroke-opacity="0.3"/>
<path d="M50.9473 43.9531L72.2415 47.2473" stroke="white" stroke-opacity="0.3"/>
<path d="M48.7285 48.7344L70.0227 52.0286" stroke="white" stroke-opacity="0.3"/>
<path d="M58.2383 28.2441L79.5325 31.5384" stroke="white" stroke-opacity="0.3"/>
<path d="M55.0684 35.0742L76.3626 38.3684" stroke="white" stroke-opacity="0.3"/>
<path d="M67.653 56.8952L51.0908 59.4573C49.7841 59.6595 48.441 59.2118 48.0908 58.4573L30.6565 20.8916C30.5957 20.7606 30.5689 20.6289 30.5728 20.4997L30.5723 18.4997C30.5912 17.8851 31.3082 17.3265 32.388 17.1595L48.9502 14.5973C50.2569 14.3952 51.6 14.8429 51.9502 15.5973L69.3845 53.163C69.4367 53.2754 69.4638 53.3883 69.468 53.4997V55.4869C69.4695 55.5158 69.4695 55.5445 69.468 55.5731C69.4356 56.1806 68.7221 56.7298 67.653 56.8952Z" fill="#FF3D33"/>
<path d="M69.3851 55.1631C69.4487 55.3003 69.4752 55.4382 69.468 55.5731M69.468 55.5731C69.4356 56.1806 68.7221 56.7298 67.653 56.8952L51.0908 59.4573C49.7841 59.6595 48.441 59.2118 48.0908 58.4573L30.6565 20.8916C30.5957 20.7606 30.5689 20.6289 30.5728 20.4997L30.5723 18.4997C30.5912 17.8851 31.3082 17.3265 32.388 17.1595L48.9502 14.5973C50.2569 14.3952 51.6 14.8429 51.9502 15.5973L69.3845 53.163C69.4367 53.2754 69.4638 53.3883 69.468 53.4997V55.5731Z" stroke="white"/>
<path d="M69.3854 55.1642C69.4491 55.3013 69.4756 55.4392 69.4684 55.5742M69.4684 55.5742C69.436 56.1816 68.7225 56.7308 67.6534 56.8962L51.0912 59.4584C49.7845 59.6605 48.4414 59.2128 48.0912 58.4584L30.6569 20.8927C30.5961 20.7616 30.5692 20.6299 30.5732 20.5007L30.5726 18.5007M69.4684 55.5742V53.5007M30.5726 18.5007C30.5916 17.8861 31.3086 17.3276 32.3884 17.1605L48.9506 14.5984C50.2573 14.3962 51.6004 14.8439 51.9506 15.5984L69.3849 53.1641C69.437 53.2765 69.4642 53.3894 69.4684 53.5007M30.5726 18.5007C30.5687 18.6299 30.5955 18.7616 30.6563 18.8926L48.0906 56.4583C48.4408 57.2127 49.7839 57.6604 51.0906 57.4583L67.6528 54.8961C68.7648 54.7241 69.4921 54.1369 69.4684 53.5007" stroke="white"/>
<path d="M30.9746 19.5745L52.2688 16.2803" stroke="white" stroke-opacity="0.3"/>
<path d="M33.1953 24.3558L54.4895 21.0615" stroke="white" stroke-opacity="0.3"/>
<path d="M34.1445 26.4046L55.4388 23.1104" stroke="white" stroke-opacity="0.3"/>
<path d="M37.3145 33.2346L58.6087 29.9404" stroke="white" stroke-opacity="0.3"/>
<path d="M40.4844 40.0657L61.7786 36.7715" stroke="white" stroke-opacity="0.3"/>
<path d="M42.7031 44.846L63.9974 41.5518" stroke="white" stroke-opacity="0.3"/>
<path d="M43.6543 46.8949L64.9485 43.6006" stroke="white" stroke-opacity="0.3"/>
<path d="M45.873 51.676L67.1673 48.3818" stroke="white" stroke-opacity="0.3"/>
<path d="M36.3652 31.1858L57.6595 27.8916" stroke="white" stroke-opacity="0.3"/>
<path d="M39.5352 38.0159L60.8294 34.7217" stroke="white" stroke-opacity="0.3"/>
<path d="M57.2093 60.2794L69.3337 53.2794C69.8044 53.0076 70.0435 52.6527 70.0509 52.2965L70.0514 50.2665C70.046 49.9089 69.8071 49.5523 69.3345 49.2794L21.7031 21.7794C20.7465 21.2272 19.1956 21.2272 18.239 21.7794L6.11463 28.7794C5.66277 29.0403 5.42417 29.3778 5.39902 29.7195V31.715C5.36891 32.0981 5.60713 32.4869 6.11384 32.7794L53.7452 60.2794C54.7018 60.8317 56.2527 60.8317 57.2093 60.2794Z" fill="#FF3D33"/>
<path d="M5.39707 29.7195C5.42222 29.3778 5.66081 29.0404 6.11268 28.7795L18.237 21.7795C19.1936 21.2272 20.7445 21.2272 21.7011 21.7795L69.3325 49.2795C69.8051 49.5524 70.044 49.909 70.0495 50.2666M5.39707 29.7195C5.36898 30.1012 5.60717 30.4881 6.11189 30.7795L53.7441 58.2795C54.7006 58.8318 56.2516 58.8318 57.2082 58.2795L69.3317 51.2795C69.8157 51.0001 70.055 50.6328 70.0495 50.2666M5.39707 29.7195V31.715C5.36696 32.0981 5.60518 32.487 6.11189 32.7795L53.7433 60.2795C54.6998 60.8318 56.2508 60.8318 57.2074 60.2795L69.3317 53.2795C69.8025 53.0077 70.0416 52.6528 70.049 52.2966L70.0495 50.2666" stroke="white"/>
<path d="M23.0038 22.5294C23.2429 22.3913 23.2429 22.1675 23.0038 22.0294C22.7646 21.8913 22.3769 21.8913 22.1378 22.0294L23.0038 22.5294ZM7.41534 31.5294L23.0038 22.5294L22.1378 22.0294L6.54932 31.0294L7.41534 31.5294Z" fill="white" fill-opacity="0.3"/>
<path d="M29.0643 26.0294C29.3035 25.8913 29.3035 25.6675 29.0643 25.5294C28.8252 25.3913 28.4375 25.3913 28.1983 25.5294L29.0643 26.0294ZM13.4759 35.0294L29.0643 26.0294L28.1983 25.5294L12.6099 34.5294L13.4759 35.0294Z" fill="white" fill-opacity="0.3"/>
<path d="M31.6639 27.5294C31.9031 27.3913 31.9031 27.1675 31.6639 27.0294C31.4248 26.8913 31.0371 26.8913 30.7979 27.0294L31.6639 27.5294ZM16.0755 36.5294L31.6639 27.5294L30.7979 27.0294L15.2095 36.0294L16.0755 36.5294Z" fill="white" fill-opacity="0.3"/>
<path d="M40.3241 32.5294C40.5633 32.3913 40.5633 32.1675 40.3241 32.0294C40.085 31.8913 39.6972 31.8913 39.4581 32.0294L40.3241 32.5294ZM24.7356 41.5294L40.3241 32.5294L39.4581 32.0294L23.8696 41.0294L24.7356 41.5294Z" fill="white" fill-opacity="0.3"/>
<path d="M48.9843 37.5294C49.2234 37.3913 49.2234 37.1675 48.9843 37.0294C48.7451 36.8913 48.3574 36.8913 48.1182 37.0294L48.9843 37.5294ZM33.3958 46.5294L48.9843 37.5294L48.1182 37.0294L32.5298 46.0294L33.3958 46.5294Z" fill="white" fill-opacity="0.3"/>
<path d="M55.0468 41.0294C55.2859 40.8913 55.2859 40.6675 55.0468 40.5294C54.8076 40.3913 54.4199 40.3913 54.1807 40.5294L55.0468 41.0294ZM39.4583 50.0294L55.0468 41.0294L54.1807 40.5294L38.5923 49.5294L39.4583 50.0294Z" fill="white" fill-opacity="0.3"/>
<path d="M57.6444 42.5294C57.8836 42.3913 57.8836 42.1675 57.6444 42.0294C57.4053 41.8913 57.0175 41.8913 56.7784 42.0294L57.6444 42.5294ZM42.056 51.5294L57.6444 42.5294L56.7784 42.0294L41.1899 51.0294L42.056 51.5294Z" fill="white" fill-opacity="0.3"/>
<path d="M63.7069 46.0294C63.9461 45.8913 63.9461 45.6675 63.7069 45.5294C63.4678 45.3913 63.08 45.3913 62.8409 45.5294L63.7069 46.0294ZM48.1185 55.0294L63.7069 46.0294L62.8409 45.5294L47.2524 54.5294L48.1185 55.0294Z" fill="white" fill-opacity="0.3"/>
<path d="M37.7264 31.0294C37.9656 30.8913 37.9656 30.6675 37.7264 30.5294C37.4873 30.3913 37.0996 30.3913 36.8604 30.5294L37.7264 31.0294ZM22.138 40.0294L37.7264 31.0294L36.8604 30.5294L21.272 39.5294L22.138 40.0294Z" fill="white" fill-opacity="0.3"/>
<path d="M46.3866 36.0294C46.6258 35.8913 46.6258 35.6675 46.3866 35.5294C46.1475 35.3913 45.7597 35.3913 45.5206 35.5294L46.3866 36.0294ZM30.7981 45.0294L46.3866 36.0294L45.5206 35.5294L29.9321 44.5294L30.7981 45.0294Z" fill="white" fill-opacity="0.3"/>
<path d="M64.5709 51.0293C65.2884 50.6151 65.2884 49.9435 64.5709 49.5293C63.8535 49.1151 62.6903 49.1151 61.9729 49.5293C61.2554 49.9435 61.2554 50.6151 61.9729 51.0293C62.6903 51.4435 63.8535 51.4435 64.5709 51.0293Z" stroke="white"/>
</g>
</svg>
