<svg width="24" height="24" viewBox="0 0 24 24" fill="none" xmlns="http://www.w3.org/2000/svg">
<path fill-rule="evenodd" clip-rule="evenodd" d="M9.44366 2.91333C10.2001 2.4908 11.072 2.25 12 2.25C12.928 2.25 13.7999 2.4908 14.5563 2.91333L15.1098 2.35984C15.2563 2.21339 15.4937 2.21339 15.6402 2.35984C15.7866 2.50628 15.7866 2.74372 15.6402 2.89016L15.1959 3.33446C16.4449 4.29419 17.25 5.80307 17.25 7.5H6.75C6.75 5.80307 7.55509 4.29419 8.80413 3.33446L8.35983 2.89016C8.21339 2.74372 8.21339 2.50628 8.35983 2.35984C8.50628 2.21339 8.74372 2.21339 8.89017 2.35984L9.44366 2.91333ZM10.5 5.25C10.5 5.66421 10.1642 6 9.75 6C9.33579 6 9 5.66421 9 5.25C9 4.83579 9.33579 4.5 9.75 4.5C10.1642 4.5 10.5 4.83579 10.5 5.25ZM14.25 6C14.6642 6 15 5.66421 15 5.25C15 4.83579 14.6642 4.5 14.25 4.5C13.8358 4.5 13.5 4.83579 13.5 5.25C13.5 5.66421 13.8358 6 14.25 6Z" fill="#A5B4FC"/>
<path fill-rule="evenodd" clip-rule="evenodd" d="M9.44366 2.91333C10.2001 2.4908 11.072 2.25 12 2.25C12.928 2.25 13.7999 2.4908 14.5563 2.91333L15.1098 2.35984C15.2563 2.21339 15.4937 2.21339 15.6402 2.35984C15.7866 2.50628 15.7866 2.74372 15.6402 2.89016L15.1959 3.33446C16.4449 4.29419 17.25 5.80307 17.25 7.5H6.75C6.75 5.80307 7.55509 4.29419 8.80413 3.33446L8.35983 2.89016C8.21339 2.74372 8.21339 2.50628 8.35983 2.35984C8.50628 2.21339 8.74372 2.21339 8.89017 2.35984L9.44366 2.91333ZM10.5 5.25C10.5 5.66421 10.1642 6 9.75 6C9.33579 6 9 5.66421 9 5.25C9 4.83579 9.33579 4.5 9.75 4.5C10.1642 4.5 10.5 4.83579 10.5 5.25ZM14.25 6C14.6642 6 15 5.66421 15 5.25C15 4.83579 14.6642 4.5 14.25 4.5C13.8358 4.5 13.5 4.83579 13.5 5.25C13.5 5.66421 13.8358 6 14.25 6Z" fill="#D1D1D1"/>
<path d="M3.75 9.375C3.75 8.75368 4.25368 8.25 4.875 8.25C5.49632 8.25 6 8.75368 6 9.375V13.875C6 14.4963 5.49632 15 4.875 15C4.25368 15 3.75 14.4963 3.75 13.875V9.375Z" fill="#A5B4FC"/>
<path d="M3.75 9.375C3.75 8.75368 4.25368 8.25 4.875 8.25C5.49632 8.25 6 8.75368 6 9.375V13.875C6 14.4963 5.49632 15 4.875 15C4.25368 15 3.75 14.4963 3.75 13.875V9.375Z" fill="#D1D1D1"/>
<path d="M9 18V20.625C9 21.2463 9.50368 21.75 10.125 21.75C10.7463 21.75 11.25 21.2463 11.25 20.625V18H12.75V20.625C12.75 21.2463 13.2537 21.75 13.875 21.75C14.4963 21.75 15 21.2463 15 20.625V18H15.75C16.5784 18 17.25 17.3284 17.25 16.5V8.25H6.75V16.5C6.75 17.3284 7.42157 18 8.25 18H9Z" fill="#A5B4FC"/>
<path d="M9 18V20.625C9 21.2463 9.50368 21.75 10.125 21.75C10.7463 21.75 11.25 21.2463 11.25 20.625V18H12.75V20.625C12.75 21.2463 13.2537 21.75 13.875 21.75C14.4963 21.75 15 21.2463 15 20.625V18H15.75C16.5784 18 17.25 17.3284 17.25 16.5V8.25H6.75V16.5C6.75 17.3284 7.42157 18 8.25 18H9Z" fill="#D1D1D1"/>
<path d="M18 9.375C18 8.75368 18.5037 8.25 19.125 8.25C19.7463 8.25 20.25 8.75368 20.25 9.375V13.875C20.25 14.4963 19.7463 15 19.125 15C18.5037 15 18 14.4963 18 13.875V9.375Z" fill="#A5B4FC"/>
<path d="M18 9.375C18 8.75368 18.5037 8.25 19.125 8.25C19.7463 8.25 20.25 8.75368 20.25 9.375V13.875C20.25 14.4963 19.7463 15 19.125 15C18.5037 15 18 14.4963 18 13.875V9.375Z" fill="#D1D1D1"/>
</svg>
