<svg width="24" height="24" viewBox="0 0 24 24" fill="none" xmlns="http://www.w3.org/2000/svg">
<path fill-rule="evenodd" clip-rule="evenodd" d="M3.22302 10C3.07706 10.6432 3 11.3126 3 12C3 12.6874 3.07706 13.3568 3.22302 14H7.1624C7.06859 13.3472 7.01408 12.6863 7.00022 12.0208C6.99993 12.0069 6.99993 11.9931 7.00022 11.9792C7.01408 11.3137 7.06859 10.6528 7.1624 10H3.22302ZM3.93552 8H7.57918C8.0384 6.32882 8.76219 4.73806 9.72571 3.28983C7.18481 3.95142 5.08079 5.69544 3.93552 8ZM12 3.5508C10.9603 4.89027 10.172 6.39792 9.66439 8H14.3356C13.828 6.39792 13.0397 4.89027 12 3.5508ZM14.8141 10H9.18588C9.07773 10.6581 9.01525 11.3263 9.00023 12C9.01525 12.6737 9.07773 13.3419 9.18588 14H14.8141C14.9223 13.3419 14.9848 12.6737 14.9998 12C14.9848 11.3263 14.9223 10.6581 14.8141 10ZM16.8376 14C16.9314 13.3472 16.9859 12.6863 16.9998 12.0208C17.0001 12.0069 17.0001 11.9931 16.9998 11.9792C16.9859 11.3137 16.9314 10.6528 16.8376 10H20.777C20.9229 10.6432 21 11.3126 21 12C21 12.6874 20.9229 13.3568 20.777 14H16.8376ZM14.3356 16H9.66439C10.172 17.6021 10.9603 19.1097 12 20.4492C13.0397 19.1097 13.828 17.6021 14.3356 16ZM9.72571 20.7102C8.76219 19.2619 8.0384 17.6712 7.57918 16H3.93552C5.08079 18.3046 7.18481 20.0486 9.72571 20.7102ZM14.2743 20.7102C15.2378 19.2619 15.9616 17.6712 16.4208 16H20.0645C18.9192 18.3046 16.8152 20.0486 14.2743 20.7102ZM20.0645 8H16.4208C15.9616 6.32882 15.2378 4.73806 14.2743 3.28983C16.8152 3.95142 18.9192 5.69544 20.0645 8ZM1 12C1 5.92487 5.92487 1 12 1C18.0751 1 23 5.92487 23 12C23 18.0751 18.0751 23 12 23C5.92487 23 1 18.0751 1 12Z" fill="#A5B4FC"/>
</svg>
