<svg width="16" height="17" viewBox="0 0 16 17" fill="none" xmlns="http://www.w3.org/2000/svg">
<path d="M13.7166 13.5326L11.1849 11.0009M12.4347 7.76407C12.4347 8.35326 12.3187 8.93669 12.0932 9.48103C11.8677 10.0254 11.5372 10.52 11.1206 10.9366C10.704 11.3532 10.2094 11.6837 9.66503 11.9092C9.12068 12.1347 8.53726 12.2507 7.94807 12.2507C7.35887 12.2507 6.77545 12.1347 6.2311 11.9092C5.68676 11.6837 5.19215 11.3532 4.77553 10.9366C4.35891 10.52 4.02843 10.0254 3.80295 9.48103C3.57748 8.93669 3.46143 8.35326 3.46143 7.76407C3.46143 6.57414 3.93412 5.43294 4.77553 4.59153C5.61694 3.75013 6.75813 3.27743 7.94807 3.27743C9.138 3.27743 10.2792 3.75013 11.1206 4.59153C11.962 5.43294 12.4347 6.57414 12.4347 7.76407Z" stroke="#cacaca" stroke-width="1.2819" stroke-linecap="round"/>
</svg>
