<svg width="16" height="17" viewBox="0 0 16 17" fill="none" xmlns="http://www.w3.org/2000/svg">
<path d="M3.00032 10.0001C2.6025 10.0001 2.22097 9.84208 1.93966 9.56077C1.65836 9.27947 1.50032 8.89794 1.50032 8.50011C1.50032 8.10229 1.65836 7.72076 1.93966 7.43945C2.22097 7.15815 2.6025 7.00011 3.00032 7.00011C3.39815 7.00011 3.77968 7.15815 4.06098 7.43945C4.34229 7.72076 4.50032 8.10229 4.50032 8.50011C4.50032 8.89794 4.34229 9.27947 4.06098 9.56077C3.77968 9.84208 3.39815 10.0001 3.00032 10.0001ZM8.00032 10.0001C7.6025 10.0001 7.22097 9.84208 6.93966 9.56077C6.65836 9.27947 6.50032 8.89794 6.50032 8.50011C6.50032 8.10229 6.65836 7.72076 6.93966 7.43945C7.22097 7.15815 7.6025 7.00011 8.00032 7.00011C8.39815 7.00011 8.77968 7.15815 9.06098 7.43945C9.34229 7.72076 9.50032 8.10229 9.50032 8.50011C9.50032 8.89794 9.34229 9.27947 9.06098 9.56077C8.77968 9.84208 8.39815 10.0001 8.00032 10.0001ZM13.0003 10.0001C12.6025 10.0001 12.221 9.84208 11.9397 9.56077C11.6584 9.27947 11.5003 8.89794 11.5003 8.50011C11.5003 8.10229 11.6584 7.72076 11.9397 7.43945C12.221 7.15815 12.6025 7.00011 13.0003 7.00011C13.3981 7.00011 13.7797 7.15815 14.061 7.43945C14.3423 7.72076 14.5003 8.10229 14.5003 8.50011C14.5003 8.89794 14.3423 9.27947 14.061 9.56077C13.7797 9.84208 13.3981 10.0001 13.0003 10.0001Z" fill="#CACFD3"/>
</svg>
