<svg width="16" height="16" viewBox="0 0 16 16" fill="none" xmlns="http://www.w3.org/2000/svg">
<g clip-path="url(#clip0_21_6)">
<path fill-rule="evenodd" clip-rule="evenodd" d="M8 2C4.68629 2 2 4.68629 2 8C2 11.3137 4.68629 14 8 14C11.3137 14 14 11.3137 14 8C14 4.68629 11.3137 2 8 2ZM0.666667 8C0.666667 3.94991 3.94991 0.666667 8 0.666667C12.0501 0.666667 15.3333 3.94991 15.3333 8C15.3333 12.0501 12.0501 15.3333 8 15.3333C3.94991 15.3333 0.666667 12.0501 0.666667 8ZM8.17208 5.34955C7.86173 5.29631 7.54256 5.35463 7.27109 5.51418C6.99962 5.67372 6.79338 5.92419 6.68889 6.22123C6.56671 6.56855 6.1861 6.75107 5.83877 6.62889C5.49144 6.50671 5.30893 6.1261 5.43111 5.77877C5.64009 5.1847 6.05258 4.68375 6.59551 4.36467C7.13845 4.04558 7.77679 3.92894 8.39749 4.0354C9.01818 4.14187 9.58117 4.46457 9.98673 4.94635C10.3922 5.42803 10.6142 6.03765 10.6133 6.66727C10.613 7.68751 9.85663 8.36126 9.31647 8.72137C9.02605 8.91498 8.74037 9.05734 8.52993 9.15087C8.42376 9.19806 8.33436 9.23387 8.26993 9.25841C8.23767 9.2707 8.21151 9.28023 8.19247 9.287L8.16931 9.29511L8.16194 9.29762L8.15934 9.2985L8.15832 9.29884C8.15812 9.29891 8.15748 9.29912 7.94667 8.66667L8.15748 9.29912C7.80819 9.41555 7.43064 9.22678 7.31421 8.87748C7.19782 8.52831 7.38643 8.15089 7.7355 8.03433L7.74579 8.03071C7.75604 8.02706 7.77285 8.02097 7.79527 8.01242C7.84023 7.9953 7.90708 7.96861 7.98841 7.93246C8.15296 7.85932 8.36729 7.75169 8.57687 7.61197C9.0366 7.30548 9.28 6.97942 9.28 6.66667L9.28 6.66567C9.28047 6.35079 9.16948 6.04591 8.9667 5.80502C8.76392 5.56413 8.48243 5.40278 8.17208 5.34955ZM7.33333 11.3333C7.33333 10.9651 7.63181 10.6667 8 10.6667H8.00667C8.37486 10.6667 8.67333 10.9651 8.67333 11.3333C8.67333 11.7015 8.37486 12 8.00667 12H8C7.63181 12 7.33333 11.7015 7.33333 11.3333Z" fill="#7E7E7E"/>
</g>
<defs>
<clipPath id="clip0_21_6">
<rect width="16" height="16" fill="white"/>
</clipPath>
</defs>
</svg>
