<svg width="24" height="24" viewBox="0 0 24 24" fill="none" xmlns="http://www.w3.org/2000/svg">
<path d="M17 8C17 7.73478 16.8946 7.48043 16.7071 7.29289C16.5196 7.10536 16.2652 7 16 7C15.7348 7 15.4804 7.10536 15.2929 7.29289C15.1054 7.48043 15 7.73478 15 8C15 10.309 14.49 11.742 13.616 12.616C12.742 13.49 11.309 14 9 14C8.73478 14 8.48043 14.1054 8.29289 14.2929C8.10536 14.4804 8 14.7348 8 15C8 15.2652 8.10536 15.5196 8.29289 15.7071C8.48043 15.8946 8.73478 16 9 16C11.309 16 12.742 16.51 13.616 17.384C14.49 18.258 15 19.692 15 22C15 22.2652 15.1054 22.5196 15.2929 22.7071C15.4804 22.8946 15.7348 23 16 23C16.2652 23 16.5196 22.8946 16.7071 22.7071C16.8946 22.5196 17 22.2652 17 22C17 19.692 17.51 18.258 18.384 17.384C19.258 16.51 20.692 16 23 16C23.2652 16 23.5196 15.8946 23.7071 15.7071C23.8946 15.5196 24 15.2652 24 15C24 14.7348 23.8946 14.4804 23.7071 14.2929C23.5196 14.1054 23.2652 14 23 14C20.692 14 19.258 13.49 18.384 12.616C17.51 11.742 17 10.309 17 8ZM8.5 2C8.5 1.73478 8.39464 1.48043 8.20711 1.29289C8.01957 1.10536 7.76522 1 7.5 1C7.23478 1 6.98043 1.10536 6.79289 1.29289C6.60536 1.48043 6.5 1.73478 6.5 2C6.5 3.44 6.18 4.25 5.715 4.715C5.249 5.18 4.44 5.5 3 5.5C2.73478 5.5 2.48043 5.60536 2.29289 5.79289C2.10536 5.98043 2 6.23478 2 6.5C2 6.76522 2.10536 7.01957 2.29289 7.20711C2.48043 7.39464 2.73478 7.5 3 7.5C4.44 7.5 5.25 7.82 5.715 8.285C6.18 8.751 6.5 9.56 6.5 11C6.5 11.2652 6.60536 11.5196 6.79289 11.7071C6.98043 11.8946 7.23478 12 7.5 12C7.76522 12 8.01957 11.8946 8.20711 11.7071C8.39464 11.5196 8.5 11.2652 8.5 11C8.5 9.56 8.82 8.75 9.285 8.285C9.751 7.82 10.56 7.5 12 7.5C12.2652 7.5 12.5196 7.39464 12.7071 7.20711C12.8946 7.01957 13 6.76522 13 6.5C13 6.23478 12.8946 5.98043 12.7071 5.79289C12.5196 5.60536 12.2652 5.5 12 5.5C10.56 5.5 9.75 5.18 9.285 4.715C8.82 4.249 8.5 3.44 8.5 2Z" fill="white"/>
</svg>
